STARTFONT 2.1
COMMENT
COMMENT Converted from OpenType font "Q:\font stuff\winfont\TeutonWeiss.otf" by "otf2bdf 3.0".
COMMENT
FONT -FreeType-Teuton Weiss-Medium-R-Normal--34-340-72-72-P-112-ISO10646-1
SIZE 34 72 72
FONTBOUNDINGBOX 29 36 -2 -7
STARTPROPERTIES 19
FOUNDRY "FreeType"
FAMILY_NAME "Teuton Weiss"
WEIGHT_NAME "Medium"
SLANT "R"
SETWIDTH_NAME "Normal"
ADD_STYLE_NAME ""
PIXEL_SIZE 34
POINT_SIZE 340
RESOLUTION_X 72
RESOLUTION_Y 72
SPACING "P"
AVERAGE_WIDTH 112
CHARSET_REGISTRY "ISO10646"
CHARSET_ENCODING "1"
FONT_ASCENT 28
FONT_DESCENT 6
COPYRIGHT "Copyright Copr. 2001, Frantisek Storm, www.stormtype.com. All rights reserved."
_OTF_FONTFILE "Q:\font stuff\winfont\TeutonWeiss.otf"
_OTF_PSNAME "TeutonWeiss"
ENDPROPERTIES
CHARS 356
STARTCHAR 0020
ENCODING 32
SWIDTH 264 0
DWIDTH 9 0
BBX 0 0 0 0
BITMAP
ENDCHAR
STARTCHAR 0021
ENCODING 33
SWIDTH 176 0
DWIDTH 6 0
BBX 1 24 3 0
BITMAP
80
80
80
80
80
80
80
80
80
80
80
80
80
80
80
80
80
80
80
80
00
00
00
80
ENDCHAR
STARTCHAR 0022
ENCODING 34
SWIDTH 264 0
DWIDTH 9 0
BBX 4 5 3 18
BITMAP
90
90
90
90
90
ENDCHAR
STARTCHAR 0023
ENCODING 35
SWIDTH 441 0
DWIDTH 15 0
BBX 14 24 1 0
BITMAP
0408
0408
0410
0410
0410
0810
0810
3FFC
0820
0820
0820
1020
1020
1040
1040
1040
FFF8
2040
2040
2080
2080
2080
4080
4080
ENDCHAR
STARTCHAR 0024
ENCODING 36
SWIDTH 411 0
DWIDTH 14 0
BBX 10 24 2 1
BITMAP
0400
0400
0400
7FC0
8000
8000
8000
8000
4000
3000
0800
0400
0300
0080
0040
0040
0040
0040
0040
0040
FF80
0400
0400
0400
ENDCHAR
STARTCHAR 0025
ENCODING 37
SWIDTH 529 0
DWIDTH 18 0
BBX 14 24 2 0
BITMAP
7C04
8208
8208
8210
8220
8220
8240
8240
8280
C680
7D00
0100
0200
02F8
058C
0504
0904
0904
1104
2104
2104
4104
4104
80F8
ENDCHAR
STARTCHAR 0026
ENCODING 38
SWIDTH 588 0
DWIDTH 20 0
BBX 15 24 3 0
BITMAP
7FF0
8000
8000
8000
8000
8000
8000
8000
C000
7FFE
C010
8010
8010
8010
8010
8010
8010
8010
8010
8010
8010
8010
8010
7F8E
ENDCHAR
STARTCHAR 0027
ENCODING 39
SWIDTH 205 0
DWIDTH 7 0
BBX 1 5 3 18
BITMAP
80
80
80
80
80
ENDCHAR
STARTCHAR 0028
ENCODING 40
SWIDTH 323 0
DWIDTH 11 0
BBX 7 31 3 -7
BITMAP
1E
60
40
80
80
80
80
80
80
80
80
80
80
80
80
80
80
80
80
80
80
80
80
80
80
80
80
80
40
60
1E
ENDCHAR
STARTCHAR 0029
ENCODING 41
SWIDTH 323 0
DWIDTH 11 0
BBX 7 31 1 -7
BITMAP
F0
0C
06
02
02
02
02
02
02
02
02
02
02
02
02
02
02
02
02
02
02
02
02
02
02
02
02
02
04
0C
F0
ENDCHAR
STARTCHAR 002A
ENCODING 42
SWIDTH 411 0
DWIDTH 14 0
BBX 11 10 2 13
BITMAP
0400
0400
0400
8420
E4C0
1F00
0A00
1200
1100
2080
ENDCHAR
STARTCHAR 002B
ENCODING 43
SWIDTH 441 0
DWIDTH 15 0
BBX 13 13 1 4
BITMAP
0200
0200
0200
0200
0200
0200
FFF8
0200
0200
0200
0200
0200
0200
ENDCHAR
STARTCHAR 002C
ENCODING 44
SWIDTH 176 0
DWIDTH 6 0
BBX 2 5 2 -4
BITMAP
40
40
40
80
80
ENDCHAR
STARTCHAR 002D
ENCODING 45
SWIDTH 294 0
DWIDTH 10 0
BBX 7 1 2 10
BITMAP
FE
ENDCHAR
STARTCHAR 002E
ENCODING 46
SWIDTH 176 0
DWIDTH 6 0
BBX 1 1 2 1
BITMAP
80
ENDCHAR
STARTCHAR 002F
ENCODING 47
SWIDTH 411 0
DWIDTH 14 0
BBX 13 31 0 -7
BITMAP
0008
0008
0008
0010
0010
0020
0020
0020
0040
0040
0080
0080
0080
0100
0100
0200
0200
0400
0400
0400
0800
0800
1000
1000
1000
2000
2000
4000
4000
4000
8000
ENDCHAR
STARTCHAR 0030
ENCODING 48
SWIDTH 500 0
DWIDTH 17 0
BBX 11 24 3 0
BITMAP
7FC0
8020
8020
8020
8020
8020
8020
8020
8020
8020
8020
8020
8020
8020
8020
8020
8020
8020
8020
8020
8020
8020
8020
7FC0
ENDCHAR
STARTCHAR 0031
ENCODING 49
SWIDTH 500 0
DWIDTH 17 0
BBX 11 24 4 1
BITMAP
0400
1C00
2400
C400
0400
0400
0400
0400
0400
0400
0400
0400
0400
0400
0400
0400
0400
0400
0400
0400
0400
0400
0400
FFE0
ENDCHAR
STARTCHAR 0032
ENCODING 50
SWIDTH 500 0
DWIDTH 17 0
BBX 12 24 3 0
BITMAP
FFE0
0010
0010
0010
0010
0010
0010
0020
0040
0180
0200
0400
0800
1000
2000
4000
8000
8000
8000
8000
8000
8000
8000
FFF0
ENDCHAR
STARTCHAR 0033
ENCODING 51
SWIDTH 500 0
DWIDTH 17 0
BBX 12 24 2 0
BITMAP
FFE0
0010
0010
0010
0010
0010
0010
0010
0010
0010
0030
3FE0
0030
0010
0010
0010
0010
0010
0010
0010
0010
0010
0010
FFE0
ENDCHAR
STARTCHAR 0034
ENCODING 52
SWIDTH 500 0
DWIDTH 17 0
BBX 15 24 1 0
BITMAP
0020
0060
00A0
00A0
0120
0220
0220
0420
0420
0820
1020
1020
2020
2020
4020
8020
FFFE
0020
0020
0020
0020
0020
0020
0020
ENDCHAR
STARTCHAR 0035
ENCODING 53
SWIDTH 500 0
DWIDTH 17 0
BBX 11 24 3 0
BITMAP
FFE0
8000
8000
8000
8000
8000
8000
8000
8000
8000
8000
FFC0
0060
0020
0020
0020
0020
0020
0020
0020
0020
0020
0020
FFC0
ENDCHAR
STARTCHAR 0036
ENCODING 54
SWIDTH 500 0
DWIDTH 17 0
BBX 11 24 3 0
BITMAP
7FE0
8000
8000
8000
8000
8000
8000
8000
8000
8000
8000
FFC0
8060
8020
8020
8020
8020
8020
8020
8020
8020
8020
8020
7FC0
ENDCHAR
STARTCHAR 0037
ENCODING 55
SWIDTH 500 0
DWIDTH 17 0
BBX 12 24 2 0
BITMAP
FFF0
0010
0020
0020
0020
0040
0040
0040
0080
0080
0080
0100
0100
0100
0200
0200
0200
0400
0400
0400
0800
0800
0800
1000
ENDCHAR
STARTCHAR 0038
ENCODING 56
SWIDTH 500 0
DWIDTH 17 0
BBX 11 24 3 0
BITMAP
7FC0
8020
8020
8020
8020
8020
8020
8020
8020
8020
C060
7FC0
C060
8020
8020
8020
8020
8020
8020
8020
8020
8020
8020
7FC0
ENDCHAR
STARTCHAR 0039
ENCODING 57
SWIDTH 500 0
DWIDTH 17 0
BBX 11 24 3 0
BITMAP
7FC0
8020
8020
8020
8020
8020
8020
8020
8020
8020
C020
7FE0
0020
0020
0020
0020
0020
0020
0020
0020
0020
0020
0020
FFC0
ENDCHAR
STARTCHAR 003A
ENCODING 58
SWIDTH 176 0
DWIDTH 6 0
BBX 1 17 3 0
BITMAP
80
00
00
00
00
00
00
00
00
00
00
00
00
00
00
00
80
ENDCHAR
STARTCHAR 003B
ENCODING 59
SWIDTH 176 0
DWIDTH 6 0
BBX 2 22 2 -5
BITMAP
40
00
00
00
00
00
00
00
00
00
00
00
00
00
00
00
40
40
40
80
80
80
ENDCHAR
STARTCHAR 003C
ENCODING 60
SWIDTH 441 0
DWIDTH 15 0
BBX 12 14 2 3
BITMAP
0010
0020
00C0
0300
0C00
3000
4000
C000
2000
1800
0600
0100
00C0
0030
ENDCHAR
STARTCHAR 003D
ENCODING 61
SWIDTH 441 0
DWIDTH 15 0
BBX 12 8 2 6
BITMAP
FFF0
0000
0000
0000
0000
0000
0000
FFF0
ENDCHAR
STARTCHAR 003E
ENCODING 62
SWIDTH 441 0
DWIDTH 15 0
BBX 12 14 2 3
BITMAP
8000
4000
3000
0C00
0300
00C0
0020
0010
0060
0180
0600
0800
3000
C000
ENDCHAR
STARTCHAR 003F
ENCODING 63
SWIDTH 382 0
DWIDTH 13 0
BBX 11 24 2 0
BITMAP
FFC0
0020
0020
0020
0020
0020
0040
0180
0300
0600
0400
0800
0800
0800
0800
0800
0800
0800
0800
0800
0000
0000
0000
0800
ENDCHAR
STARTCHAR 0040
ENCODING 64
SWIDTH 676 0
DWIDTH 23 0
BBX 18 24 3 -4
BITMAP
7FF000
C01800
800800
800800
800800
800800
83F840
860840
840840
840840
840840
840840
840840
840840
840840
860840
83F840
800040
800040
800040
800040
800040
C000C0
7FFF80
ENDCHAR
STARTCHAR 0041
ENCODING 65
SWIDTH 500 0
DWIDTH 17 0
BBX 16 24 1 0
BITMAP
0180
0180
0280
0240
0240
0240
0420
0420
0420
0810
0810
0810
1008
1008
1008
1008
3FFC
2004
2004
4002
4002
4002
8001
8001
ENDCHAR
STARTCHAR 0042
ENCODING 66
SWIDTH 558 0
DWIDTH 19 0
BBX 13 24 3 0
BITMAP
FFF0
8008
8008
8008
8008
8008
8008
8008
8008
8008
8018
FFF0
8018
8008
8008
8008
8008
8008
8008
8008
8008
8008
8008
FFF0
ENDCHAR
STARTCHAR 0043
ENCODING 67
SWIDTH 500 0
DWIDTH 17 0
BBX 12 24 3 0
BITMAP
7FF0
8000
8000
8000
8000
8000
8000
8000
8000
8000
8000
8000
8000
8000
8000
8000
8000
8000
8000
8000
8000
8000
8000
7FF0
ENDCHAR
STARTCHAR 0044
ENCODING 68
SWIDTH 558 0
DWIDTH 19 0
BBX 13 24 3 0
BITMAP
FFF0
8008
8008
8008
8008
8008
8008
8008
8008
8008
8008
8008
8008
8008
8008
8008
8008
8008
8008
8008
8008
8008
8008
FFF0
ENDCHAR
STARTCHAR 0045
ENCODING 69
SWIDTH 470 0
DWIDTH 16 0
BBX 12 24 3 0
BITMAP
FFF0
8000
8000
8000
8000
8000
8000
8000
8000
8000
8000
FFC0
8000
8000
8000
8000
8000
8000
8000
8000
8000
8000
8000
FFF0
ENDCHAR
STARTCHAR 0046
ENCODING 70
SWIDTH 441 0
DWIDTH 15 0
BBX 12 24 3 0
BITMAP
FFF0
8000
8000
8000
8000
8000
8000
8000
8000
8000
8000
FFC0
8000
8000
8000
8000
8000
8000
8000
8000
8000
8000
8000
8000
ENDCHAR
STARTCHAR 0047
ENCODING 71
SWIDTH 558 0
DWIDTH 19 0
BBX 13 24 3 0
BITMAP
7FF8
8000
8000
8000
8000
8000
8000
8000
8000
8000
8000
83F8
8008
8008
8008
8008
8008
8008
8008
8008
8008
8008
8008
7FF0
ENDCHAR
STARTCHAR 0048
ENCODING 72
SWIDTH 558 0
DWIDTH 19 0
BBX 13 24 3 0
BITMAP
8008
8008
8008
8008
8008
8008
8008
8008
8008
8008
8008
FFF8
8008
8008
8008
8008
8008
8008
8008
8008
8008
8008
8008
8008
ENDCHAR
STARTCHAR 0049
ENCODING 73
SWIDTH 205 0
DWIDTH 7 0
BBX 1 24 3 0
BITMAP
80
80
80
80
80
80
80
80
80
80
80
80
80
80
80
80
80
80
80
80
80
80
80
80
ENDCHAR
STARTCHAR 004A
ENCODING 74
SWIDTH 323 0
DWIDTH 11 0
BBX 8 24 0 0
BITMAP
01
01
01
01
01
01
01
01
01
01
01
01
01
01
01
01
01
01
01
01
01
01
01
FE
ENDCHAR
STARTCHAR 004B
ENCODING 75
SWIDTH 500 0
DWIDTH 17 0
BBX 13 24 3 0
BITMAP
8010
8010
8020
8020
8040
8040
8080
8080
8100
8100
8200
FC00
8200
8100
8100
8080
8080
8040
8040
8020
8020
8010
8010
8008
ENDCHAR
STARTCHAR 004C
ENCODING 76
SWIDTH 470 0
DWIDTH 16 0
BBX 12 24 3 0
BITMAP
8000
8000
8000
8000
8000
8000
8000
8000
8000
8000
8000
8000
8000
8000
8000
8000
8000
8000
8000
8000
8000
8000
8000
FFF0
ENDCHAR
STARTCHAR 004D
ENCODING 77
SWIDTH 617 0
DWIDTH 21 0
BBX 15 24 3 0
BITMAP
C002
C006
C00A
A00A
A00A
A012
9012
9012
8822
8822
8842
8442
8442
8282
8282
8302
8102
8002
8002
8002
8002
8002
8002
8002
ENDCHAR
STARTCHAR 004E
ENCODING 78
SWIDTH 558 0
DWIDTH 19 0
BBX 13 24 3 0
BITMAP
C008
C008
C008
A008
A008
9008
9008
8808
8808
8408
8408
8208
8208
8108
8108
8108
8088
8088
8048
8048
8028
8028
8018
8018
ENDCHAR
STARTCHAR 004F
ENCODING 79
SWIDTH 558 0
DWIDTH 19 0
BBX 13 24 3 0
BITMAP
7FF0
8008
8008
8008
8008
8008
8008
8008
8008
8008
8008
8008
8008
8008
8008
8008
8008
8008
8008
8008
8008
8008
8008
7FF0
ENDCHAR
STARTCHAR 0050
ENCODING 80
SWIDTH 529 0
DWIDTH 18 0
BBX 13 24 3 0
BITMAP
FFF0
8008
8008
8008
8008
8008
8008
8008
8008
8008
8018
FFF0
8000
8000
8000
8000
8000
8000
8000
8000
8000
8000
8000
8000
ENDCHAR
STARTCHAR 0051
ENCODING 81
SWIDTH 558 0
DWIDTH 19 0
BBX 13 31 3 -7
BITMAP
7FF0
8008
8008
8008
8008
8008
8008
8008
8008
8008
8008
8008
8008
8008
8008
8008
8008
8008
8008
8208
8208
8108
8108
7FF0
0080
0080
0080
0040
0040
0020
0020
ENDCHAR
STARTCHAR 0052
ENCODING 82
SWIDTH 558 0
DWIDTH 19 0
BBX 14 24 3 0
BITMAP
FFF0
8008
8008
8008
8008
8008
8008
8008
8008
8008
8018
FFF0
8040
8040
8020
8020
8020
8010
8010
8008
8008
8008
8004
8004
ENDCHAR
STARTCHAR 0053
ENCODING 83
SWIDTH 500 0
DWIDTH 17 0
BBX 13 24 2 0
BITMAP
7FF8
8000
8000
8000
8000
8000
8000
4000
2000
1800
0C00
0200
0100
00C0
0020
0010
0008
0008
0008
0008
0008
0008
0008
FFF0
ENDCHAR
STARTCHAR 0054
ENCODING 84
SWIDTH 470 0
DWIDTH 16 0
BBX 15 24 0 0
BITMAP
FFFE
0100
0100
0100
0100
0100
0100
0100
0100
0100
0100
0100
0100
0100
0100
0100
0100
0100
0100
0100
0100
0100
0100
0100
ENDCHAR
STARTCHAR 0055
ENCODING 85
SWIDTH 558 0
DWIDTH 19 0
BBX 13 24 3 0
BITMAP
8008
8008
8008
8008
8008
8008
8008
8008
8008
8008
8008
8008
8008
8008
8008
8008
8008
8008
8008
8008
8008
8008
8008
7FF0
ENDCHAR
STARTCHAR 0056
ENCODING 86
SWIDTH 500 0
DWIDTH 17 0
BBX 16 24 1 0
BITMAP
8001
8001
4002
4002
4002
2004
2004
2004
2008
1008
1008
1010
0810
0810
0810
0420
0420
0420
0240
0240
0240
0280
0180
0180
ENDCHAR
STARTCHAR 0057
ENCODING 87
SWIDTH 764 0
DWIDTH 26 0
BBX 24 24 1 0
BITMAP
800801
801801
801802
401802
402802
402402
402404
202404
204404
204404
204208
104208
104208
108208
108110
088110
088110
090110
090120
0500A0
0500A0
0500A0
0600C0
020040
ENDCHAR
STARTCHAR 0058
ENCODING 88
SWIDTH 529 0
DWIDTH 18 0
BBX 17 24 1 0
BITMAP
200200
200200
100400
100800
080800
041000
041000
022000
024000
014000
008000
008000
014000
022000
022000
041000
081000
080800
100400
100400
200200
400200
400100
800080
ENDCHAR
STARTCHAR 0059
ENCODING 89
SWIDTH 529 0
DWIDTH 18 0
BBX 17 24 1 0
BITMAP
800080
400100
400100
200200
200200
100400
080800
080800
041000
022000
022000
014000
014000
008000
008000
008000
008000
008000
008000
008000
008000
008000
008000
008000
ENDCHAR
STARTCHAR 005A
ENCODING 90
SWIDTH 500 0
DWIDTH 17 0
BBX 14 24 2 0
BITMAP
FFFC
0004
0008
0010
0010
0020
0020
0040
0080
0080
0100
0100
0200
0200
0400
0800
0800
1000
1000
2000
2000
4000
8000
FFFC
ENDCHAR
STARTCHAR 005B
ENCODING 91
SWIDTH 323 0
DWIDTH 11 0
BBX 7 31 3 -7
BITMAP
FE
80
80
80
80
80
80
80
80
80
80
80
80
80
80
80
80
80
80
80
80
80
80
80
80
80
80
80
80
80
FE
ENDCHAR
STARTCHAR 005C
ENCODING 92
SWIDTH 411 0
DWIDTH 14 0
BBX 13 24 0 0
BITMAP
8000
4000
4000
2000
2000
1000
1000
0800
0800
0400
0400
0200
0200
0100
0080
0080
0040
0040
0020
0020
0010
0010
0008
0008
ENDCHAR
STARTCHAR 005D
ENCODING 93
SWIDTH 294 0
DWIDTH 10 0
BBX 7 31 1 -7
BITMAP
FE
02
02
02
02
02
02
02
02
02
02
02
02
02
02
02
02
02
02
02
02
02
02
02
02
02
02
02
02
02
FE
ENDCHAR
STARTCHAR 005E
ENCODING 94
SWIDTH 323 0
DWIDTH 11 0
BBX 11 9 0 15
BITMAP
0400
0A00
0A00
1100
2100
2080
4040
4040
8020
ENDCHAR
STARTCHAR 005F
ENCODING 95
SWIDTH 705 0
DWIDTH 24 0
BBX 21 1 2 -4
BITMAP
FFFFF8
ENDCHAR
STARTCHAR 0060
ENCODING 96
SWIDTH 294 0
DWIDTH 10 0
BBX 4 4 3 19
BITMAP
80
40
20
10
ENDCHAR
STARTCHAR 0061
ENCODING 97
SWIDTH 470 0
DWIDTH 16 0
BBX 11 17 2 0
BITMAP
FFC0
0020
0020
0020
0020
0020
7FE0
C020
8020
8020
8020
8020
8020
8020
8020
8020
7FE0
ENDCHAR
STARTCHAR 0062
ENCODING 98
SWIDTH 470 0
DWIDTH 16 0
BBX 10 24 3 0
BITMAP
8000
8000
8000
8000
8000
8000
8000
FF80
8040
8040
8040
8040
8040
8040
8040
8040
8040
8040
8040
8040
8040
8040
8040
FF80
ENDCHAR
STARTCHAR 0063
ENCODING 99
SWIDTH 411 0
DWIDTH 14 0
BBX 10 17 3 0
BITMAP
7FC0
8000
8000
8000
8000
8000
8000
8000
8000
8000
8000
8000
8000
8000
8000
8000
7FC0
ENDCHAR
STARTCHAR 0064
ENCODING 100
SWIDTH 470 0
DWIDTH 16 0
BBX 10 24 3 0
BITMAP
0040
0040
0040
0040
0040
0040
0040
7FC0
8040
8040
8040
8040
8040
8040
8040
8040
8040
8040
8040
8040
8040
8040
8040
7FC0
ENDCHAR
STARTCHAR 0065
ENCODING 101
SWIDTH 441 0
DWIDTH 15 0
BBX 10 17 3 0
BITMAP
7F80
8040
8040
8040
8040
8040
FFC0
8000
8000
8000
8000
8000
8000
8000
8000
8000
7FC0
ENDCHAR
STARTCHAR 0066
ENCODING 102
SWIDTH 264 0
DWIDTH 9 0
BBX 6 24 3 0
BITMAP
7C
80
80
80
80
80
80
FC
80
80
80
80
80
80
80
80
80
80
80
80
80
80
80
80
ENDCHAR
STARTCHAR 0067
ENCODING 103
SWIDTH 470 0
DWIDTH 16 0
BBX 10 24 3 -7
BITMAP
7FC0
8040
8040
8040
8040
8040
8040
8040
8040
8040
8040
8040
8040
8040
8040
8040
7FC0
0040
0040
0040
0040
0040
0040
FF80
ENDCHAR
STARTCHAR 0068
ENCODING 104
SWIDTH 470 0
DWIDTH 16 0
BBX 10 24 3 0
BITMAP
8000
8000
8000
8000
8000
8000
8000
FF80
8040
8040
8040
8040
8040
8040
8040
8040
8040
8040
8040
8040
8040
8040
8040
8040
ENDCHAR
STARTCHAR 0069
ENCODING 105
SWIDTH 176 0
DWIDTH 6 0
BBX 1 21 3 0
BITMAP
80
00
00
00
80
80
80
80
80
80
80
80
80
80
80
80
80
80
80
80
80
ENDCHAR
STARTCHAR 006A
ENCODING 106
SWIDTH 176 0
DWIDTH 6 0
BBX 2 28 2 -7
BITMAP
40
00
00
00
40
40
40
40
40
40
40
40
40
40
40
40
40
40
40
40
40
40
40
40
40
80
80
80
ENDCHAR
STARTCHAR 006B
ENCODING 107
SWIDTH 441 0
DWIDTH 15 0
BBX 10 24 3 1
BITMAP
8000
8000
8000
8000
8000
8000
8000
8040
8080
8080
8100
8100
8200
8200
FC00
8200
8200
8100
8100
8080
8080
8080
8040
8040
ENDCHAR
STARTCHAR 006C
ENCODING 108
SWIDTH 176 0
DWIDTH 6 0
BBX 1 24 3 0
BITMAP
80
80
80
80
80
80
80
80
80
80
80
80
80
80
80
80
80
80
80
80
80
80
80
80
ENDCHAR
STARTCHAR 006D
ENCODING 109
SWIDTH 676 0
DWIDTH 23 0
BBX 17 17 3 0
BITMAP
FF7F00
808080
808080
808080
808080
808080
808080
808080
808080
808080
808080
808080
808080
808080
808080
808080
808080
ENDCHAR
STARTCHAR 006E
ENCODING 110
SWIDTH 470 0
DWIDTH 16 0
BBX 10 17 3 0
BITMAP
FF80
8040
8040
8040
8040
8040
8040
8040
8040
8040
8040
8040
8040
8040
8040
8040
8040
ENDCHAR
STARTCHAR 006F
ENCODING 111
SWIDTH 470 0
DWIDTH 16 0
BBX 10 17 3 0
BITMAP
7F80
8040
8040
8040
8040
8040
8040
8040
8040
8040
8040
8040
8040
8040
8040
8040
7F80
ENDCHAR
STARTCHAR 0070
ENCODING 112
SWIDTH 470 0
DWIDTH 16 0
BBX 10 24 3 -7
BITMAP
FF80
8040
8040
8040
8040
8040
8040
8040
8040
8040
8040
8040
8040
8040
8040
8040
FF80
8000
8000
8000
8000
8000
8000
8000
ENDCHAR
STARTCHAR 0071
ENCODING 113
SWIDTH 470 0
DWIDTH 16 0
BBX 10 24 3 -7
BITMAP
7FC0
8040
8040
8040
8040
8040
8040
8040
8040
8040
8040
8040
8040
8040
8040
8040
7FC0
0040
0040
0040
0040
0040
0040
0040
ENDCHAR
STARTCHAR 0072
ENCODING 114
SWIDTH 294 0
DWIDTH 10 0
BBX 7 17 3 0
BITMAP
BE
C0
80
80
80
80
80
80
80
80
80
80
80
80
80
80
80
ENDCHAR
STARTCHAR 0073
ENCODING 115
SWIDTH 411 0
DWIDTH 14 0
BBX 10 17 2 0
BITMAP
7FC0
8000
8000
8000
8000
4000
2000
1800
0400
0300
0080
0040
0040
0040
0040
0040
FF80
ENDCHAR
STARTCHAR 0074
ENCODING 116
SWIDTH 294 0
DWIDTH 10 0
BBX 6 21 3 1
BITMAP
80
80
80
80
FC
80
80
80
80
80
80
80
80
80
80
80
80
80
80
80
7C
ENDCHAR
STARTCHAR 0075
ENCODING 117
SWIDTH 470 0
DWIDTH 16 0
BBX 10 17 3 0
BITMAP
8040
8040
8040
8040
8040
8040
8040
8040
8040
8040
8040
8040
8040
8040
8040
8040
7FC0
ENDCHAR
STARTCHAR 0076
ENCODING 118
SWIDTH 382 0
DWIDTH 13 0
BBX 12 17 1 0
BITMAP
8010
8010
4020
4020
4020
2040
2040
2040
1080
1080
1080
0900
0900
0900
0A00
0600
0600
ENDCHAR
STARTCHAR 0077
ENCODING 119
SWIDTH 617 0
DWIDTH 21 0
BBX 19 17 1 0
BITMAP
804020
80C020
40A040
40A040
40A040
412080
212080
211080
211080
221100
121100
120900
120A00
0A0A00
0C0A00
0C0600
040400
ENDCHAR
STARTCHAR 0078
ENCODING 120
SWIDTH 411 0
DWIDTH 14 0
BBX 12 17 1 0
BITMAP
8010
4020
2040
2040
1080
1100
0900
0600
0400
0600
0900
1100
1080
2040
2040
4020
8010
ENDCHAR
STARTCHAR 0079
ENCODING 121
SWIDTH 382 0
DWIDTH 13 0
BBX 12 23 1 -7
BITMAP
8010
8010
4020
4020
4020
2040
2040
2040
1080
1080
1080
0900
0900
0900
0A00
0600
0600
0400
0400
0400
0800
0800
0800
ENDCHAR
STARTCHAR 007A
ENCODING 122
SWIDTH 411 0
DWIDTH 14 0
BBX 11 17 2 0
BITMAP
FFE0
0040
0040
0080
0100
0100
0200
0200
0400
0800
0800
1000
2000
2000
4000
8000
FFE0
ENDCHAR
STARTCHAR 007B
ENCODING 123
SWIDTH 352 0
DWIDTH 12 0
BBX 9 31 1 -7
BITMAP
0780
1800
1000
2000
2000
2000
2000
2000
2000
2000
2000
2000
2000
4000
8000
4000
2000
2000
2000
2000
2000
2000
2000
2000
2000
2000
2000
2000
1000
1800
0780
ENDCHAR
STARTCHAR 007C
ENCODING 124
SWIDTH 176 0
DWIDTH 6 0
BBX 1 31 3 -7
BITMAP
80
80
80
80
80
80
80
80
80
80
80
80
80
80
80
80
80
80
80
80
80
80
80
80
80
80
80
80
80
80
80
ENDCHAR
STARTCHAR 007D
ENCODING 125
SWIDTH 352 0
DWIDTH 12 0
BBX 9 31 1 -7
BITMAP
F000
0C00
0600
0200
0200
0200
0200
0200
0200
0200
0200
0200
0200
0100
0080
0100
0200
0200
0200
0200
0200
0200
0200
0200
0200
0200
0200
0200
0400
0C00
F000
ENDCHAR
STARTCHAR 007E
ENCODING 126
SWIDTH 470 0
DWIDTH 16 0
BBX 13 5 1 15
BITMAP
7008
CC08
8208
8118
80F0
ENDCHAR
STARTCHAR 00A0
ENCODING 160
SWIDTH 264 0
DWIDTH 9 0
BBX 0 0 0 0
BITMAP
ENDCHAR
STARTCHAR 00A1
ENCODING 161
SWIDTH 176 0
DWIDTH 6 0
BBX 1 24 3 -7
BITMAP
80
00
00
00
80
80
80
80
80
80
80
80
80
80
80
80
80
80
80
80
80
80
80
80
ENDCHAR
STARTCHAR 00A2
ENCODING 162
SWIDTH 382 0
DWIDTH 13 0
BBX 10 24 2 1
BITMAP
0400
0400
0400
7FC0
C000
8000
8000
8000
8000
8000
8000
8000
8000
8000
8000
8000
8000
8000
8000
C000
7FC0
0400
0400
0400
ENDCHAR
STARTCHAR 00A3
ENCODING 163
SWIDTH 470 0
DWIDTH 16 0
BBX 13 24 2 0
BITMAP
3F00
4000
4000
4000
4000
4000
4000
4000
4000
4000
4000
4000
FF00
4000
4000
4000
4000
4000
4000
4000
4000
4000
4000
7FF8
ENDCHAR
STARTCHAR 00A4
ENCODING 164
SWIDTH 470 0
DWIDTH 16 0
BBX 14 24 1 1
BITMAP
8004
4008
4018
4018
3FF0
3030
2010
2010
2010
2010
2010
2010
2010
2010
2010
2010
2010
2010
3030
3FF0
4018
4008
4008
8004
ENDCHAR
STARTCHAR 00A5
ENCODING 165
SWIDTH 529 0
DWIDTH 18 0
BBX 17 24 1 1
BITMAP
800080
400100
600200
200200
100400
100400
080800
041000
041000
022000
022000
014000
008000
008000
008000
07F000
008000
008000
008000
008000
008000
008000
008000
008000
ENDCHAR
STARTCHAR 00A7
ENCODING 167
SWIDTH 411 0
DWIDTH 14 0
BBX 10 31 2 -7
BITMAP
7FC0
8000
8000
8000
8000
C000
E000
9000
8800
8600
8100
8080
8040
8040
8040
8040
8040
8040
4040
3040
0840
0440
0340
00C0
0040
0040
0040
0040
0040
0040
FF80
ENDCHAR
STARTCHAR 00A8
ENCODING 168
SWIDTH 294 0
DWIDTH 10 0
BBX 4 1 3 21
BITMAP
90
ENDCHAR
STARTCHAR 00A9
ENCODING 169
SWIDTH 647 0
DWIDTH 22 0
BBX 16 24 3 0
BITMAP
7FFE
8001
8001
8FF9
9001
9001
9001
9001
9001
9001
9001
9001
9001
9001
9001
9001
9001
9001
9001
9001
8FF9
8001
8001
7FFE
ENDCHAR
STARTCHAR 00AA
ENCODING 170
SWIDTH 470 0
DWIDTH 16 0
BBX 11 24 2 0
BITMAP
FFC0
0020
0020
0020
0020
0020
0020
7FE0
C020
8020
8020
8020
8020
8020
8020
C020
7FE0
0000
0000
0000
0000
0000
0000
FFE0
ENDCHAR
STARTCHAR 00AB
ENCODING 171
SWIDTH 558 0
DWIDTH 19 0
BBX 16 14 1 3
BITMAP
0081
0302
0404
0818
1020
6040
C180
C080
2040
1030
0818
0604
0102
0081
ENDCHAR
STARTCHAR 00AC
ENCODING 172
SWIDTH 441 0
DWIDTH 15 0
BBX 12 11 2 0
BITMAP
FFF0
0010
0010
0010
0010
0010
0010
0010
0010
0010
0010
ENDCHAR
STARTCHAR 00AE
ENCODING 174
SWIDTH 647 0
DWIDTH 22 0
BBX 16 24 3 0
BITMAP
7FFE
8001
8001
9FF1
9009
9009
9009
9009
9009
9009
9009
9FF1
9041
9021
9021
9011
9011
9009
9009
9009
9005
8001
8001
7FFE
ENDCHAR
STARTCHAR 00AF
ENCODING 175
SWIDTH 352 0
DWIDTH 12 0
BBX 7 1 3 21
BITMAP
FE
ENDCHAR
STARTCHAR 00B0
ENCODING 176
SWIDTH 323 0
DWIDTH 11 0
BBX 7 11 2 13
BITMAP
7C
82
82
82
82
82
82
82
82
C6
7C
ENDCHAR
STARTCHAR 00B1
ENCODING 177
SWIDTH 441 0
DWIDTH 15 0
BBX 13 17 1 0
BITMAP
0200
0200
0200
0200
0200
0200
FFF8
0200
0200
0200
0200
0200
0200
0000
0000
0000
FFF8
ENDCHAR
STARTCHAR 00B4
ENCODING 180
SWIDTH 294 0
DWIDTH 10 0
BBX 4 5 3 19
BITMAP
10
20
40
40
80
ENDCHAR
STARTCHAR 00B5
ENCODING 181
SWIDTH 470 0
DWIDTH 16 0
BBX 10 24 3 -7
BITMAP
8040
8040
8040
8040
8040
8040
8040
8040
8040
8040
8040
8040
8040
8040
8040
8040
FFC0
8000
8000
8000
8000
8000
8000
8000
ENDCHAR
STARTCHAR 00B6
ENCODING 182
SWIDTH 529 0
DWIDTH 18 0
BBX 13 24 3 0
BITMAP
3FF8
7FF8
FFF8
FFF8
FFF8
FFF8
FFF8
FFF8
FFF8
FFF8
7FF8
3FF8
0008
0008
0008
0008
0008
0008
0008
0008
0008
0008
0008
0008
ENDCHAR
STARTCHAR 00B7
ENCODING 183
SWIDTH 176 0
DWIDTH 6 0
BBX 2 2 2 9
BITMAP
C0
C0
ENDCHAR
STARTCHAR 00B8
ENCODING 184
SWIDTH 323 0
DWIDTH 11 0
BBX 6 8 3 -7
BITMAP
20
40
78
04
04
04
04
F8
ENDCHAR
STARTCHAR 00BA
ENCODING 186
SWIDTH 470 0
DWIDTH 16 0
BBX 10 24 3 0
BITMAP
7F80
8040
8040
8040
8040
8040
8040
8040
8040
8040
8040
8040
8040
8040
8040
C0C0
7F80
0000
0000
0000
0000
0000
0000
FFC0
ENDCHAR
STARTCHAR 00BB
ENCODING 187
SWIDTH 558 0
DWIDTH 19 0
BBX 16 14 1 3
BITMAP
8100
40C0
2060
1810
0408
0206
0183
0103
0204
0C08
1810
2060
4080
8100
ENDCHAR
STARTCHAR 00BF
ENCODING 191
SWIDTH 382 0
DWIDTH 13 0
BBX 11 24 2 -7
BITMAP
0200
0000
0000
0000
0200
0200
0200
0200
0200
0200
0200
0200
0200
0600
0C00
1800
3000
4000
8000
8000
8000
8000
8000
7FE0
ENDCHAR
STARTCHAR 00C0
ENCODING 192
SWIDTH 500 0
DWIDTH 17 0
BBX 16 27 1 0
BITMAP
07F0
0000
0000
0080
0140
0140
0140
0240
0220
0220
0420
0410
0410
0810
0810
0808
1008
1008
1004
1FFC
2004
2004
4002
4002
4002
8001
8001
ENDCHAR
STARTCHAR 00C1
ENCODING 193
SWIDTH 500 0
DWIDTH 17 0
BBX 16 29 1 0
BITMAP
0410
0410
0410
03E0
0000
0080
0180
0140
0240
0240
0220
0420
0420
0420
0810
0810
0810
1008
1008
1008
1004
3FFC
2004
2004
4002
4002
4002
8001
8001
ENDCHAR
STARTCHAR 00C2
ENCODING 194
SWIDTH 500 0
DWIDTH 17 0
BBX 16 27 1 0
BITMAP
0240
0000
0000
0080
0180
0180
0240
0240
0240
0440
0420
0420
0820
0810
0810
1010
1008
1008
1008
3FFC
2004
2004
4002
4002
4002
8002
8001
ENDCHAR
STARTCHAR 00C3
ENCODING 195
SWIDTH 411 0
DWIDTH 14 0
BBX 9 24 3 0
BITMAP
0100
0200
0200
0400
0800
0000
0000
7F80
8000
8000
8000
8000
8000
8000
8000
8000
8000
8000
8000
8000
8000
8000
8000
7F80
ENDCHAR
STARTCHAR 00C4
ENCODING 196
SWIDTH 500 0
DWIDTH 17 0
BBX 16 28 1 1
BITMAP
0400
0300
0080
0000
0180
0180
0280
0240
0240
0240
0420
0420
0420
0810
0810
0810
1008
1008
1008
1008
3FFC
2004
2004
4002
4002
4002
8001
8001
ENDCHAR
STARTCHAR 00C5
ENCODING 197
SWIDTH 500 0
DWIDTH 17 0
BBX 16 28 1 0
BITMAP
0E08
1188
1070
0000
0180
0180
0180
0240
0240
0240
0420
0420
0420
0430
0810
0810
0810
1018
1008
1008
3FFC
2004
2004
6006
4002
4002
8003
8001
ENDCHAR
STARTCHAR 00C6
ENCODING 198
SWIDTH 794 0
DWIDTH 27 0
BBX 27 24 -1 0
BITMAP
0003FFE0
00050000
00050000
00090000
00090000
00110000
00210000
00210000
00410000
00410000
00810000
0101FF80
01010000
02010000
02010000
04010000
0FFF0000
08010000
10010000
10010000
20010000
40010000
40010000
8001FFE0
ENDCHAR
STARTCHAR 00C7
ENCODING 199
SWIDTH 500 0
DWIDTH 17 0
BBX 13 28 3 1
BITMAP
0300
0480
0840
0000
7FF8
8000
8000
8000
8000
8000
8000
8000
8000
8000
8000
8000
8000
8000
8000
8000
8000
8000
8000
8000
8000
8000
8000
7FF8
ENDCHAR
STARTCHAR 00C8
ENCODING 200
SWIDTH 470 0
DWIDTH 16 0
BBX 12 28 3 1
BITMAP
0800
0600
0100
0000
FFF0
8000
8000
8000
8000
8000
8000
8000
8000
8000
8000
FFC0
8000
8000
8000
8000
8000
8000
8000
8000
8000
8000
8000
FFF0
ENDCHAR
STARTCHAR 00C9
ENCODING 201
SWIDTH 470 0
DWIDTH 16 0
BBX 11 28 3 1
BITMAP
0100
0200
0400
0000
FFE0
8000
8000
8000
8000
8000
8000
8000
8000
8000
8000
FF80
8000
8000
8000
8000
8000
8000
8000
8000
8000
8000
8000
FFE0
ENDCHAR
STARTCHAR 00CA
ENCODING 202
SWIDTH 470 0
DWIDTH 16 0
BBX 12 28 3 1
BITMAP
0600
0900
1080
0000
FFF0
8000
8000
8000
8000
8000
8000
8000
8000
8000
8000
FFC0
8000
8000
8000
8000
8000
8000
8000
8000
8000
8000
8000
FFF0
ENDCHAR
STARTCHAR 00CB
ENCODING 203
SWIDTH 470 0
DWIDTH 16 0
BBX 13 27 3 0
BITMAP
0880
0000
0000
FFF0
8000
8000
8000
8000
8000
8000
8000
8000
8000
8000
FFC0
8000
8000
8000
8000
8000
8000
8000
8000
8000
8000
8000
FFF8
ENDCHAR
STARTCHAR 00CC
ENCODING 204
SWIDTH 205 0
DWIDTH 7 0
BBX 3 28 0 1
BITMAP
80
40
20
00
20
20
20
20
20
20
20
20
20
20
20
20
20
20
20
20
20
20
20
20
20
20
20
20
ENDCHAR
STARTCHAR 00CD
ENCODING 205
SWIDTH 205 0
DWIDTH 7 0
BBX 4 28 3 1
BITMAP
30
40
80
00
80
80
80
80
80
80
80
80
80
80
80
80
80
80
80
80
80
80
80
80
80
80
80
80
ENDCHAR
STARTCHAR 00CE
ENCODING 206
SWIDTH 205 0
DWIDTH 7 0
BBX 5 28 1 1
BITMAP
20
D0
08
00
20
20
20
20
20
20
20
20
20
20
20
20
20
20
20
20
20
20
20
20
20
20
20
20
ENDCHAR
STARTCHAR 00CF
ENCODING 207
SWIDTH 205 0
DWIDTH 7 0
BBX 5 27 1 0
BITMAP
88
00
00
20
20
20
20
20
20
20
20
20
20
20
20
20
20
20
20
20
20
20
20
20
20
20
20
ENDCHAR
STARTCHAR 00D1
ENCODING 209
SWIDTH 558 0
DWIDTH 19 0
BBX 13 28 3 0
BITMAP
1C10
2310
20E0
0000
C018
C018
C018
A018
A018
9018
9018
8818
8818
8818
8418
8418
8218
8218
8218
8118
8118
8098
8098
8058
8058
8058
8038
8018
ENDCHAR
STARTCHAR 00D2
ENCODING 210
SWIDTH 558 0
DWIDTH 19 0
BBX 13 28 3 1
BITMAP
0400
0200
0100
0000
7FF0
8008
8008
8008
8008
8008
8008
8008
8008
8008
8008
8008
8008
8008
8008
8008
8008
8008
8008
8008
8008
8008
8008
7FF0
ENDCHAR
STARTCHAR 00D3
ENCODING 211
SWIDTH 558 0
DWIDTH 19 0
BBX 13 28 3 1
BITMAP
0180
0200
0400
0000
7FF0
8008
8008
8008
8008
8008
8008
8008
8008
8008
8008
8008
8008
8008
8008
8008
8008
8008
8008
8008
8008
8008
8008
7FF0
ENDCHAR
STARTCHAR 00D4
ENCODING 212
SWIDTH 558 0
DWIDTH 19 0
BBX 13 28 3 1
BITMAP
0700
0880
1040
0000
7FF0
8008
8008
8008
8008
8008
8008
8008
8008
8008
8008
8008
8008
8008
8008
8008
8008
8008
8008
8008
8008
8008
8008
7FF0
ENDCHAR
STARTCHAR 00D5
ENCODING 213
SWIDTH 558 0
DWIDTH 19 0
BBX 13 28 3 0
BITMAP
3C10
4210
41E0
0000
7FF0
8018
8018
8018
8018
8018
8018
8018
8018
8018
8018
8018
8018
8018
8018
8018
8018
8018
8018
8018
8018
8018
8018
7FF0
ENDCHAR
STARTCHAR 00D6
ENCODING 214
SWIDTH 558 0
DWIDTH 19 0
BBX 13 27 3 0
BITMAP
0880
0000
0000
7FF0
8008
8008
8008
8008
8008
8008
8008
8008
8008
8008
8008
8008
8008
8008
8008
8008
8008
8008
8008
8008
8008
8008
7FF0
ENDCHAR
STARTCHAR 00D8
ENCODING 216
SWIDTH 558 0
DWIDTH 19 0
BBX 19 24 0 0
BITMAP
0FFE20
100140
100180
100100
100100
100300
100500
100900
100900
101100
102100
104100
104100
108100
110100
120100
120100
140100
180100
100100
100100
300100
500100
8FFE00
ENDCHAR
STARTCHAR 00D9
ENCODING 217
SWIDTH 558 0
DWIDTH 19 0
BBX 13 28 3 1
BITMAP
0400
0200
0100
0000
8008
8008
8008
8008
8008
8008
8008
8008
8008
8008
8008
8008
8008
8008
8008
8008
8008
8008
8008
8008
8008
8008
8008
7FF0
ENDCHAR
STARTCHAR 00DA
ENCODING 218
SWIDTH 558 0
DWIDTH 19 0
BBX 13 28 3 1
BITMAP
0080
0100
0200
0000
8008
8008
8008
8008
8008
8008
8008
8008
8008
8008
8008
8008
8008
8008
8008
8008
8008
8008
8008
8008
8008
8008
8008
7FF0
ENDCHAR
STARTCHAR 00DB
ENCODING 219
SWIDTH 558 0
DWIDTH 19 0
BBX 13 28 3 1
BITMAP
0200
0D00
0080
0000
8008
8008
8008
8008
8008
8008
8008
8008
8008
8008
8008
8008
8008
8008
8008
8008
8008
8008
8008
8008
8008
8008
8008
7FF0
ENDCHAR
STARTCHAR 00DC
ENCODING 220
SWIDTH 558 0
DWIDTH 19 0
BBX 13 27 3 0
BITMAP
0880
0000
0000
8008
8008
8008
8008
8008
8008
8008
8008
8008
8008
8008
8008
8008
8008
8008
8008
8008
8008
8008
8008
8008
8008
8008
7FF0
ENDCHAR
STARTCHAR 00DD
ENCODING 221
SWIDTH 529 0
DWIDTH 18 0
BBX 16 28 1 1
BITMAP
0040
0080
0000
0000
8001
8002
4002
4004
2004
2008
1010
0810
0820
0440
0440
0280
0280
0100
0100
0100
0100
0100
0100
0100
0100
0100
0100
0100
ENDCHAR
STARTCHAR 00DF
ENCODING 223
SWIDTH 441 0
DWIDTH 15 0
BBX 10 24 3 0
BITMAP
7F80
8040
8040
8040
8040
8040
8080
8100
8200
8400
8800
8800
8800
8400
8600
8100
8080
8040
8040
8040
8040
8040
8040
8F80
ENDCHAR
STARTCHAR 00E0
ENCODING 224
SWIDTH 470 0
DWIDTH 16 0
BBX 11 22 2 0
BITMAP
3F80
0000
0000
0000
0000
FFC0
0020
0020
0020
0020
0020
7FE0
C020
8020
8020
8020
8020
8020
8020
8020
8020
7FE0
ENDCHAR
STARTCHAR 00E1
ENCODING 225
SWIDTH 470 0
DWIDTH 16 0
BBX 11 24 2 1
BITMAP
2000
2080
3080
1F00
0000
0000
0000
FFC0
0020
0020
0020
0020
0020
7FE0
C020
8020
8020
8020
8020
8020
8020
8020
8020
7FE0
ENDCHAR
STARTCHAR 00E2
ENCODING 226
SWIDTH 470 0
DWIDTH 16 0
BBX 11 22 2 0
BITMAP
1100
0000
0000
0000
0000
FFC0
0020
0020
0020
0020
0020
7FE0
C020
8020
8020
8020
8020
8020
8020
8020
8020
7FE0
ENDCHAR
STARTCHAR 00E3
ENCODING 227
SWIDTH 500 0
DWIDTH 17 0
BBX 16 28 1 1
BITMAP
0020
0040
0080
0000
0080
0140
0140
0140
0240
0220
0220
0420
0410
0410
0810
0810
0808
1008
1008
1004
3FFC
2004
2004
4002
4002
4002
8001
8001
ENDCHAR
STARTCHAR 00E4
ENCODING 228
SWIDTH 470 0
DWIDTH 16 0
BBX 11 24 2 0
BITMAP
1000
0800
0800
0400
0200
0000
0000
FFC0
0020
0020
0020
0020
0020
7FE0
C020
8020
8020
8020
8020
8020
8020
8020
8020
7FE0
ENDCHAR
STARTCHAR 00E5
ENCODING 229
SWIDTH 470 0
DWIDTH 16 0
BBX 11 24 2 0
BITMAP
7020
C820
8420
8260
81C0
0000
0000
FFC0
0020
0020
0020
0020
0020
7FE0
C020
8020
8020
8020
8020
8020
8020
8020
8020
7FE0
ENDCHAR
STARTCHAR 00E6
ENCODING 230
SWIDTH 735 0
DWIDTH 25 0
BBX 20 17 2 0
BITMAP
FFDFE0
002010
002010
002010
002010
002010
7FFFF0
C02000
802000
802000
802000
802000
802000
802000
802000
802000
7FDFF0
ENDCHAR
STARTCHAR 00E7
ENCODING 231
SWIDTH 411 0
DWIDTH 14 0
BBX 9 24 3 0
BITMAP
0400
0A00
1200
2100
0080
0000
0000
7F80
8000
8000
8000
8000
8000
8000
8000
8000
8000
8000
8000
8000
8000
8000
8000
7F80
ENDCHAR
STARTCHAR 00E8
ENCODING 232
SWIDTH 441 0
DWIDTH 15 0
BBX 10 24 3 0
BITMAP
1000
1000
0800
0400
0200
0000
0000
7F80
8040
8040
8040
8040
8040
FFC0
8000
8000
8000
8000
8000
8000
8000
8000
8000
7FC0
ENDCHAR
STARTCHAR 00E9
ENCODING 233
SWIDTH 441 0
DWIDTH 15 0
BBX 10 24 3 0
BITMAP
0300
0200
0400
0800
1000
0000
0000
7F80
8040
8040
8040
8040
8040
FFC0
8000
8000
8000
8000
8000
8000
8000
8000
8000
7FC0
ENDCHAR
STARTCHAR 00EA
ENCODING 234
SWIDTH 441 0
DWIDTH 15 0
BBX 9 24 3 0
BITMAP
0C00
0C00
1200
2100
0000
0000
0000
7F00
8080
8080
8080
8080
8080
FF80
8000
8000
8000
8000
8000
8000
8000
8000
8000
7F80
ENDCHAR
STARTCHAR 00EB
ENCODING 235
SWIDTH 441 0
DWIDTH 15 0
BBX 10 22 3 0
BITMAP
1200
0000
0000
0000
0000
7F80
8040
8040
8040
8040
8040
FFC0
8000
8000
8000
8000
8000
8000
8000
8000
8000
7FC0
ENDCHAR
STARTCHAR 00EC
ENCODING 236
SWIDTH 176 0
DWIDTH 6 0
BBX 5 24 -1 0
BITMAP
80
40
20
10
08
00
00
10
10
10
10
10
10
10
10
10
10
10
10
10
10
10
10
10
ENDCHAR
STARTCHAR 00ED
ENCODING 237
SWIDTH 176 0
DWIDTH 6 0
BBX 4 24 2 0
BITMAP
10
20
40
80
00
00
00
80
80
80
80
80
80
80
80
80
80
80
80
80
80
80
80
80
ENDCHAR
STARTCHAR 00EE
ENCODING 238
SWIDTH 176 0
DWIDTH 6 0
BBX 7 24 0 0
BITMAP
10
28
44
84
82
00
00
10
10
10
10
10
10
10
10
10
10
10
10
10
10
10
10
10
ENDCHAR
STARTCHAR 00EF
ENCODING 239
SWIDTH 176 0
DWIDTH 6 0
BBX 5 22 1 0
BITMAP
88
00
00
00
00
20
20
20
20
20
20
20
20
20
20
20
20
20
20
20
20
20
ENDCHAR
STARTCHAR 00F0
ENCODING 240
SWIDTH 500 0
DWIDTH 17 0
BBX 11 24 3 0
BITMAP
4000
2000
1400
1800
1800
2400
0200
0100
0080
0040
0020
7FE0
C020
8020
8020
8020
8020
8020
8020
8020
8020
8020
8020
7FC0
ENDCHAR
STARTCHAR 00F1
ENCODING 241
SWIDTH 470 0
DWIDTH 16 0
BBX 10 24 3 0
BITMAP
7040
C840
8840
84C0
8380
0000
0000
FF80
8040
8040
8040
8040
8040
8040
8040
8040
8040
8040
8040
8040
8040
8040
8040
8040
ENDCHAR
STARTCHAR 00F2
ENCODING 242
SWIDTH 470 0
DWIDTH 16 0
BBX 10 24 3 0
BITMAP
1000
1000
0800
0400
0200
0000
0000
7F80
8040
8040
8040
8040
8040
8040
8040
8040
8040
8040
8040
8040
8040
8040
8040
7F80
ENDCHAR
STARTCHAR 00F3
ENCODING 243
SWIDTH 470 0
DWIDTH 16 0
BBX 10 24 3 0
BITMAP
0300
0200
0400
0800
1000
0000
0000
7F80
8040
8040
8040
8040
8040
8040
8040
8040
8040
8040
8040
8040
8040
8040
8040
7F80
ENDCHAR
STARTCHAR 00F4
ENCODING 244
SWIDTH 470 0
DWIDTH 16 0
BBX 10 24 3 0
BITMAP
0800
1400
2200
4200
4100
0000
0000
7F80
8040
8040
8040
8040
8040
8040
8040
8040
8040
8040
8040
8040
8040
8040
8040
7F80
ENDCHAR
STARTCHAR 00F5
ENCODING 245
SWIDTH 470 0
DWIDTH 16 0
BBX 10 24 3 0
BITMAP
7040
C840
8840
84C0
8380
0000
0000
7F80
8040
8040
8040
8040
8040
8040
8040
8040
8040
8040
8040
8040
8040
8040
8040
7F80
ENDCHAR
STARTCHAR 00F6
ENCODING 246
SWIDTH 470 0
DWIDTH 16 0
BBX 10 22 3 0
BITMAP
1200
0000
0000
0000
0000
7F80
8040
8040
8040
8040
8040
8040
8040
8040
8040
8040
8040
8040
8040
8040
8040
7F80
ENDCHAR
STARTCHAR 00F7
ENCODING 247
SWIDTH 441 0
DWIDTH 15 0
BBX 11 12 2 4
BITMAP
0400
0000
0000
0000
0000
FFE0
0000
0000
0000
0000
0000
0400
ENDCHAR
STARTCHAR 00F8
ENCODING 248
SWIDTH 470 0
DWIDTH 16 0
BBX 13 17 2 0
BITMAP
3FC8
4030
4020
4060
40A0
40A0
4120
4220
4420
4420
4820
5020
5020
6020
4020
C020
3FC0
ENDCHAR
STARTCHAR 00F9
ENCODING 249
SWIDTH 470 0
DWIDTH 16 0
BBX 10 24 3 0
BITMAP
1000
1000
0800
0400
0000
0000
0000
8040
8040
8040
8040
8040
8040
8040
8040
8040
8040
8040
8040
8040
8040
8040
8040
7FC0
ENDCHAR
STARTCHAR 00FA
ENCODING 250
SWIDTH 470 0
DWIDTH 16 0
BBX 10 24 3 0
BITMAP
0200
0400
0400
0800
1000
0000
0000
8040
8040
8040
8040
8040
8040
8040
8040
8040
8040
8040
8040
8040
8040
8040
8040
7FC0
ENDCHAR
STARTCHAR 00FB
ENCODING 251
SWIDTH 470 0
DWIDTH 16 0
BBX 10 24 3 0
BITMAP
0800
1400
2200
4200
4100
0000
0000
8040
8040
8040
8040
8040
8040
8040
8040
8040
8040
8040
8040
8040
8040
8040
8040
7FC0
ENDCHAR
STARTCHAR 00FC
ENCODING 252
SWIDTH 470 0
DWIDTH 16 0
BBX 10 22 3 0
BITMAP
1200
0000
0000
0000
0000
8040
8040
8040
8040
8040
8040
8040
8040
8040
8040
8040
8040
8040
8040
8040
8040
7FC0
ENDCHAR
STARTCHAR 00FD
ENCODING 253
SWIDTH 382 0
DWIDTH 13 0
BBX 12 31 1 -7
BITMAP
0600
0800
1800
3800
F800
0000
0000
8030
8070
8060
80E0
80E0
81C0
83C0
83C0
8780
8780
8F80
5F00
5F00
FF00
FE00
BE00
3E00
FC00
7C00
7C00
3800
3800
1800
1000
ENDCHAR
STARTCHAR 00FF
ENCODING 255
SWIDTH 382 0
DWIDTH 13 0
BBX 12 29 1 -7
BITMAP
0900
0000
0000
0000
0000
8010
8010
4020
4020
4020
2040
2040
2040
1080
1080
1080
0900
0900
0900
0900
0600
0600
0200
0400
0400
0400
0800
0800
0800
ENDCHAR
STARTCHAR 0100
ENCODING 256
SWIDTH 500 0
DWIDTH 17 0
BBX 16 31 1 -7
BITMAP
0100
0280
0280
0280
0440
0440
0440
0440
0820
0820
0820
0810
1010
1010
1008
2008
3FF8
2004
2004
4004
4002
4002
4002
8001
8001
0006
0018
0020
0020
0020
001F
ENDCHAR
STARTCHAR 0101
ENCODING 257
SWIDTH 470 0
DWIDTH 16 0
BBX 11 24 2 -7
BITMAP
FFC0
0020
0020
0020
0020
0020
7FE0
C020
8020
8020
8020
8020
8020
8020
8020
8020
C020
7FE0
00C0
0100
0200
0400
0200
03E0
ENDCHAR
STARTCHAR 0102
ENCODING 258
SWIDTH 500 0
DWIDTH 17 0
BBX 16 28 1 1
BITMAP
0100
0680
0860
0000
0100
0280
0280
0280
0240
0440
0440
0420
0820
0820
0810
0810
1010
1018
1008
2008
3FFC
2004
2004
4006
4002
4002
8003
8001
ENDCHAR
STARTCHAR 0103
ENCODING 259
SWIDTH 470 0
DWIDTH 16 0
BBX 11 24 2 0
BITMAP
0400
0A00
1100
2100
2080
0000
0000
FFC0
0020
0020
0020
0020
0020
7FE0
C020
8020
8020
8020
8020
8020
8020
8020
8020
7FE0
ENDCHAR
STARTCHAR 0104
ENCODING 260
SWIDTH 500 0
DWIDTH 17 0
BBX 16 29 1 0
BITMAP
07E0
0810
0810
0810
07E0
0000
0180
0180
0240
0240
0240
0420
0420
0420
0820
0810
0810
1010
1008
1008
1008
3FFC
2004
2004
4002
4002
4002
8001
8001
ENDCHAR
STARTCHAR 0105
ENCODING 261
SWIDTH 470 0
DWIDTH 16 0
BBX 11 25 2 0
BITMAP
1F00
2080
2080
2080
2080
1F00
0000
0000
FFC0
0020
0020
0020
0020
0020
7FE0
C020
8020
8020
8020
8020
8020
8020
8020
8020
7FE0
ENDCHAR
STARTCHAR 0106
ENCODING 262
SWIDTH 500 0
DWIDTH 17 0
BBX 11 28 3 1
BITMAP
0840
0480
0300
0000
7FE0
8000
8000
8000
8000
8000
8000
8000
8000
8000
8000
8000
8000
8000
8000
8000
8000
8000
8000
8000
8000
8000
8000
7FE0
ENDCHAR
STARTCHAR 0107
ENCODING 263
SWIDTH 411 0
DWIDTH 14 0
BBX 9 24 3 0
BITMAP
2080
1100
0A00
0A00
0400
0000
0000
7F80
8000
8000
8000
8000
8000
8000
8000
8000
8000
8000
8000
8000
8000
8000
8000
7F80
ENDCHAR
STARTCHAR 0108
ENCODING 264
SWIDTH 500 0
DWIDTH 17 0
BBX 12 27 3 0
BITMAP
0200
0000
0000
7FF0
8000
8000
8000
8000
8000
8000
8000
8000
8000
8000
8000
8000
8000
8000
8000
8000
8000
8000
8000
8000
8000
8000
7FF0
ENDCHAR
STARTCHAR 0109
ENCODING 265
SWIDTH 411 0
DWIDTH 14 0
BBX 9 21 3 0
BITMAP
0800
0000
0000
0000
7F80
8000
8000
8000
8000
8000
8000
8000
8000
8000
8000
8000
8000
8000
8000
8000
7F80
ENDCHAR
STARTCHAR 010A
ENCODING 266
SWIDTH 558 0
DWIDTH 19 0
BBX 13 28 3 1
BITMAP
1080
0900
0600
0000
FFF0
8008
8008
8008
8008
8008
8008
8008
8008
8008
8008
8008
8008
8008
8008
8008
8008
8008
8008
8008
8008
8008
8008
FFF0
ENDCHAR
STARTCHAR 010B
ENCODING 267
SWIDTH 500 0
DWIDTH 17 0
BBX 12 28 3 1
BITMAP
0080
0100
0200
0000
7FF0
8000
8000
8000
8000
8000
8000
8000
8000
8000
8000
8000
8000
8000
8000
8000
8000
8000
8000
8000
8000
8000
8000
7FF0
ENDCHAR
STARTCHAR 010C
ENCODING 268
SWIDTH 500 0
DWIDTH 17 0
BBX 12 31 3 -7
BITMAP
7FF0
8000
8000
8000
8000
8000
8000
8000
8000
8000
8000
8000
8000
8000
8000
8000
8000
8000
8000
8000
8000
8000
8000
7FF0
0200
0380
0040
0040
0040
0040
0F80
ENDCHAR
STARTCHAR 010D
ENCODING 269
SWIDTH 411 0
DWIDTH 14 0
BBX 9 24 3 -7
BITMAP
7F80
8000
8000
8000
8000
8000
8000
8000
8000
8000
8000
8000
8000
8000
8000
8000
7F80
0800
0E00
0100
0100
0100
0100
1E00
ENDCHAR
STARTCHAR 010E
ENCODING 270
SWIDTH 558 0
DWIDTH 19 0
BBX 13 27 3 0
BITMAP
1FC0
0000
0000
FFF0
8008
8008
8008
8008
8008
8008
8008
8008
8008
8008
8008
8008
8008
8008
8008
8008
8008
8008
8008
8008
8008
8008
FFF0
ENDCHAR
STARTCHAR 010F
ENCODING 271
SWIDTH 470 0
DWIDTH 16 0
BBX 12 24 3 1
BITMAP
0040
0040
07F0
0040
0040
0040
0040
7FC0
8040
8040
8040
8040
8040
8040
8040
8040
8040
8040
8040
8040
8040
8040
8040
7FC0
ENDCHAR
STARTCHAR 0111
ENCODING 273
SWIDTH 470 0
DWIDTH 16 0
BBX 10 24 3 1
BITMAP
0040
0040
7F40
0040
0040
0040
0040
7FC0
8040
8040
8040
8040
8040
8040
8040
8040
8040
8040
8040
8040
8040
8040
8040
7FC0
ENDCHAR
STARTCHAR 0112
ENCODING 274
SWIDTH 470 0
DWIDTH 16 0
BBX 12 27 3 0
BITMAP
1FC0
0000
0000
FFF0
8000
8000
8000
8000
8000
8000
8000
8000
8000
8000
FFC0
8000
8000
8000
8000
8000
8000
8000
8000
8000
8000
8000
FFF0
ENDCHAR
STARTCHAR 0113
ENCODING 275
SWIDTH 441 0
DWIDTH 15 0
BBX 10 22 3 0
BITMAP
3F80
0000
0000
0000
0000
7F80
8040
8040
8040
8040
8040
FFC0
8000
8000
8000
8000
8000
8000
8000
8000
8000
7F80
ENDCHAR
STARTCHAR 0114
ENCODING 276
SWIDTH 470 0
DWIDTH 16 0
BBX 13 29 3 0
BITMAP
1000
1040
1040
0F80
0000
FFF8
8000
8000
8000
8000
8000
8000
8000
8000
8000
8000
FFE0
8000
8000
8000
8000
8000
8000
8000
8000
8000
8000
8000
FFF8
ENDCHAR
STARTCHAR 0115
ENCODING 277
SWIDTH 441 0
DWIDTH 15 0
BBX 10 24 3 1
BITMAP
4000
4100
6100
3E00
0000
0000
0000
7F80
8040
8040
8040
8040
8040
FFC0
8000
8000
8000
8000
8000
8000
8000
8000
8000
7FC0
ENDCHAR
STARTCHAR 0116
ENCODING 278
SWIDTH 470 0
DWIDTH 16 0
BBX 13 27 3 0
BITMAP
0200
0000
0000
FFF0
8000
8000
8000
8000
8000
8000
8000
8000
8000
8000
FFC0
8000
8000
8000
8000
8000
8000
8000
8000
8000
8000
8000
FFF8
ENDCHAR
STARTCHAR 0117
ENCODING 279
SWIDTH 441 0
DWIDTH 15 0
BBX 10 21 3 0
BITMAP
0400
0000
0000
0000
7F80
8040
8040
8040
8040
8040
FFC0
8000
8000
8000
8000
8000
8000
8000
8000
8000
7FC0
ENDCHAR
STARTCHAR 0118
ENCODING 280
SWIDTH 470 0
DWIDTH 16 0
BBX 12 31 3 -7
BITMAP
FFE0
8000
8000
8000
8000
8000
8000
8000
8000
8000
8000
FFC0
8000
8000
8000
8000
8000
8000
8000
8000
8000
8000
8000
8000
FFF0
0040
0180
0200
0200
0200
01E0
ENDCHAR
STARTCHAR 0119
ENCODING 281
SWIDTH 441 0
DWIDTH 15 0
BBX 10 24 3 -7
BITMAP
7F80
8040
8040
8040
8040
8040
FFC0
8000
8000
8000
8000
8000
8000
8000
8000
8000
C000
7FC0
0100
0E00
1000
1000
1000
0FC0
ENDCHAR
STARTCHAR 011A
ENCODING 282
SWIDTH 470 0
DWIDTH 16 0
BBX 12 28 3 1
BITMAP
1080
0900
0600
0000
FFF0
8000
8000
8000
8000
8000
8000
8000
8000
8000
8000
FFC0
8000
8000
8000
8000
8000
8000
8000
8000
8000
8000
8000
FFF0
ENDCHAR
STARTCHAR 011B
ENCODING 283
SWIDTH 441 0
DWIDTH 15 0
BBX 9 24 3 0
BITMAP
2000
2100
1200
0C00
0000
0000
0000
7F00
8080
8080
8080
8080
8080
FF80
8000
8000
8000
8000
8000
8000
8000
8000
8000
7F80
ENDCHAR
STARTCHAR 011C
ENCODING 284
SWIDTH 558 0
DWIDTH 19 0
BBX 13 28 3 1
BITMAP
0300
0C80
1040
0000
7FF8
8000
8000
8000
8000
8000
8000
8000
8000
8000
8000
83F8
8008
8008
8008
8008
8008
8008
8008
8008
8008
8008
8008
7FF0
ENDCHAR
STARTCHAR 011D
ENCODING 285
SWIDTH 470 0
DWIDTH 16 0
BBX 10 31 3 -7
BITMAP
0400
0C00
1200
2100
4080
0000
0000
7FC0
8040
8040
8040
8040
8040
8040
8040
8040
8040
8040
8040
8040
8040
8040
8040
7FC0
0040
0040
0040
0040
0040
0040
FF80
ENDCHAR
STARTCHAR 011E
ENCODING 286
SWIDTH 558 0
DWIDTH 19 0
BBX 13 29 3 0
BITMAP
1040
1040
1040
0F80
0000
7FF8
8000
8000
8000
8000
8000
8000
8000
8000
8000
8000
83F8
8008
8008
8008
8008
8008
8008
8008
8008
8008
8008
8008
7FF0
ENDCHAR
STARTCHAR 011F
ENCODING 287
SWIDTH 470 0
DWIDTH 16 0
BBX 10 31 3 -6
BITMAP
4000
4100
6100
3E00
0000
0000
0000
7FC0
8040
8040
8040
8040
8040
8040
8040
8040
8040
8040
8040
8040
8040
8040
8040
7FC0
0040
0040
0040
0040
0040
0040
FF80
ENDCHAR
STARTCHAR 0120
ENCODING 288
SWIDTH 558 0
DWIDTH 19 0
BBX 13 27 3 0
BITMAP
0200
0000
0000
7FF8
8000
8000
8000
8000
8000
8000
8000
8000
8000
8000
83F8
8008
8008
8008
8008
8008
8008
8008
8008
8008
8008
8008
7FF0
ENDCHAR
STARTCHAR 0121
ENCODING 289
SWIDTH 470 0
DWIDTH 16 0
BBX 10 28 3 -7
BITMAP
0400
0000
0000
0000
7FC0
8040
8040
8040
8040
8040
8040
8040
8040
8040
8040
8040
8040
8040
8040
8040
7FC0
0040
0040
0040
0040
0040
0040
FF80
ENDCHAR
STARTCHAR 0122
ENCODING 290
SWIDTH 558 0
DWIDTH 19 0
BBX 13 31 3 -7
BITMAP
7FF8
8000
8000
8000
8000
8000
8000
8000
8000
8000
8000
81F8
8008
8008
8008
8008
8008
8008
8008
8008
8008
8008
8008
7FF0
0000
0100
0100
0100
0200
0200
0400
ENDCHAR
STARTCHAR 0123
ENCODING 291
SWIDTH 470 0
DWIDTH 16 0
BBX 10 31 3 -7
BITMAP
0100
0100
0200
0200
0200
0000
0000
7FC0
8040
8040
8040
8040
8040
8040
8040
8040
8040
8040
8040
8040
8040
8040
8040
7FC0
0040
0040
0040
0040
0040
0040
FF80
ENDCHAR
STARTCHAR 0124
ENCODING 292
SWIDTH 558 0
DWIDTH 19 0
BBX 13 28 3 1
BITMAP
0200
0D00
10C0
0000
8008
8008
8008
8008
8008
8008
8008
8008
8008
8008
8008
FFF8
8008
8008
8008
8008
8008
8008
8008
8008
8008
8008
8008
8008
ENDCHAR
STARTCHAR 0125
ENCODING 293
SWIDTH 470 0
DWIDTH 16 0
BBX 10 28 3 1
BITMAP
3000
4800
8400
0000
8000
8000
8000
8000
8000
8000
8000
FF80
8040
8040
8040
8040
8040
8040
8040
8040
8040
8040
8040
8040
8040
8040
8040
8040
ENDCHAR
STARTCHAR 0126
ENCODING 294
SWIDTH 558 0
DWIDTH 19 0
BBX 17 24 1 1
BITMAP
200200
200200
FFFF80
200200
200200
200200
200200
200200
200200
200200
200200
3FFE00
200200
200200
200200
200200
200200
200200
200200
200200
200200
200200
200200
200200
ENDCHAR
STARTCHAR 0127
ENCODING 295
SWIDTH 470 0
DWIDTH 16 0
BBX 12 24 1 1
BITMAP
2000
2000
FE00
2000
2000
2000
2000
3FE0
2010
2010
2010
2010
2010
2010
2010
2010
2010
2010
2010
2010
2010
2010
2010
2010
ENDCHAR
STARTCHAR 0128
ENCODING 296
SWIDTH 205 0
DWIDTH 7 0
BBX 11 28 -2 0
BITMAP
7820
8620
83C0
0000
0400
0400
0400
0400
0400
0400
0400
0400
0400
0400
0400
0400
0400
0400
0400
0400
0400
0400
0400
0400
0400
0400
0400
0400
ENDCHAR
STARTCHAR 0129
ENCODING 297
SWIDTH 176 0
DWIDTH 6 0
BBX 10 24 -2 0
BITMAP
7040
C840
8840
84C0
8380
0000
0000
0400
0400
0400
0400
0400
0400
0400
0400
0400
0400
0400
0400
0400
0400
0400
0400
0400
ENDCHAR
STARTCHAR 012A
ENCODING 298
SWIDTH 205 0
DWIDTH 7 0
BBX 7 27 0 0
BITMAP
FE
00
00
10
10
10
10
10
10
10
10
10
10
10
10
10
10
10
10
10
10
10
10
10
10
10
10
ENDCHAR
STARTCHAR 012B
ENCODING 299
SWIDTH 176 0
DWIDTH 6 0
BBX 7 22 0 0
BITMAP
FE
00
00
00
00
10
10
10
10
10
10
10
10
10
10
10
10
10
10
10
10
10
ENDCHAR
STARTCHAR 012C
ENCODING 300
SWIDTH 205 0
DWIDTH 7 0
BBX 7 29 0 0
BITMAP
82
82
82
7C
00
10
10
10
10
10
10
10
10
10
10
10
10
10
10
10
10
10
10
10
10
10
10
10
10
ENDCHAR
STARTCHAR 012D
ENCODING 301
SWIDTH 176 0
DWIDTH 6 0
BBX 7 24 0 1
BITMAP
82
82
C6
7C
00
00
00
10
10
10
10
10
10
10
10
10
10
10
10
10
10
10
10
10
ENDCHAR
STARTCHAR 012E
ENCODING 302
SWIDTH 205 0
DWIDTH 7 0
BBX 5 31 0 -7
BITMAP
10
10
10
10
10
10
10
10
10
10
10
10
10
10
10
10
10
10
10
10
10
10
10
10
30
40
80
80
80
80
78
ENDCHAR
STARTCHAR 012F
ENCODING 303
SWIDTH 176 0
DWIDTH 6 0
BBX 6 28 0 -7
BITMAP
10
00
00
00
10
10
10
10
10
10
10
10
10
10
10
10
10
10
10
10
10
20
40
80
80
80
80
7C
ENDCHAR
STARTCHAR 0130
ENCODING 304
SWIDTH 205 0
DWIDTH 7 0
BBX 1 27 3 0
BITMAP
80
00
00
80
80
80
80
80
80
80
80
80
80
80
80
80
80
80
80
80
80
80
80
80
80
80
80
ENDCHAR
STARTCHAR 0131
ENCODING 305
SWIDTH 176 0
DWIDTH 6 0
BBX 1 17 3 0
BITMAP
80
80
80
80
80
80
80
80
80
80
80
80
80
80
80
80
80
ENDCHAR
STARTCHAR 0132
ENCODING 306
SWIDTH 470 0
DWIDTH 16 0
BBX 10 24 3 0
BITMAP
8040
8040
8040
8040
8040
8040
8040
8040
8040
8040
8040
8040
8040
8040
8040
8040
8040
8040
8040
8040
8040
8040
8040
9F80
ENDCHAR
STARTCHAR 0133
ENCODING 307
SWIDTH 382 0
DWIDTH 13 0
BBX 7 28 3 -7
BITMAP
80
00
00
00
80
82
82
82
82
82
82
82
82
82
82
82
82
82
82
82
82
02
02
02
02
02
02
04
ENDCHAR
STARTCHAR 0134
ENCODING 308
SWIDTH 323 0
DWIDTH 11 0
BBX 9 28 1 1
BITMAP
0600
0900
1080
0000
0200
0200
0200
0200
0200
0200
0200
0200
0200
0200
0200
0200
0200
0200
0200
0200
0200
0200
0200
0200
0200
0200
0200
FC00
ENDCHAR
STARTCHAR 0135
ENCODING 309
SWIDTH 176 0
DWIDTH 6 0
BBX 8 31 -1 -7
BITMAP
08
14
22
42
81
00
00
08
08
08
08
08
08
08
08
08
08
08
08
08
08
08
08
08
08
08
08
08
10
10
10
ENDCHAR
STARTCHAR 0136
ENCODING 310
SWIDTH 500 0
DWIDTH 17 0
BBX 13 31 3 -7
BITMAP
8010
8010
8020
8020
8040
8040
8080
8080
8100
8100
8200
FC00
8200
8100
8100
8080
8080
8040
8040
8020
8020
8010
8010
8008
0000
0000
0400
0400
0400
0800
0800
ENDCHAR
STARTCHAR 0137
ENCODING 311
SWIDTH 441 0
DWIDTH 15 0
BBX 10 31 3 -6
BITMAP
8000
8000
8000
8000
8000
8000
8000
8040
8080
8080
8100
8100
8200
8200
FC00
8200
8200
8100
8100
8080
8080
8080
8040
8040
0000
0400
0400
0800
0800
0800
1000
ENDCHAR
STARTCHAR 0139
ENCODING 313
SWIDTH 470 0
DWIDTH 16 0
BBX 12 28 3 1
BITMAP
1000
2000
4000
0000
8000
8000
8000
8000
8000
8000
8000
8000
8000
8000
8000
8000
8000
8000
8000
8000
8000
8000
8000
8000
8000
8000
8000
FFF0
ENDCHAR
STARTCHAR 013A
ENCODING 314
SWIDTH 176 0
DWIDTH 6 0
BBX 4 28 3 1
BITMAP
10
20
C0
00
80
80
80
80
80
80
80
80
80
80
80
80
80
80
80
80
80
80
80
80
80
80
80
80
ENDCHAR
STARTCHAR 013B
ENCODING 315
SWIDTH 470 0
DWIDTH 16 0
BBX 12 31 3 -7
BITMAP
8000
8000
8000
8000
8000
8000
8000
8000
8000
8000
8000
8000
8000
8000
8000
8000
8000
8000
8000
8000
8000
8000
8000
FFF0
0000
0200
0200
0200
0400
0400
0400
ENDCHAR
STARTCHAR 013C
ENCODING 316
SWIDTH 176 0
DWIDTH 6 0
BBX 2 31 2 -7
BITMAP
40
40
40
40
40
40
40
40
40
40
40
40
40
40
40
40
40
40
40
40
40
40
40
40
00
40
40
40
80
80
80
ENDCHAR
STARTCHAR 013D
ENCODING 317
SWIDTH 470 0
DWIDTH 16 0
BBX 12 24 3 0
BITMAP
8800
8800
8800
8800
8800
8000
8000
8000
8000
8000
8000
8000
8000
8000
8000
8000
8000
8000
8000
8000
8000
8000
8000
FFF0
ENDCHAR
STARTCHAR 013E
ENCODING 318
SWIDTH 176 0
DWIDTH 6 0
BBX 4 24 3 0
BITMAP
90
90
90
A0
80
80
80
80
80
80
80
80
80
80
80
80
80
80
80
80
80
80
80
80
ENDCHAR
STARTCHAR 013F
ENCODING 319
SWIDTH 470 0
DWIDTH 16 0
BBX 14 24 3 0
BITMAP
8000
8000
8000
8000
8000
8000
8000
8000
8000
8000
8000
8400
8000
8000
8000
8000
8000
8000
8000
8000
8000
8000
8000
FFFC
ENDCHAR
STARTCHAR 0140
ENCODING 320
SWIDTH 205 0
DWIDTH 7 0
BBX 4 24 3 0
BITMAP
80
80
80
80
80
80
80
80
80
80
80
90
80
80
80
80
80
80
80
80
80
80
80
80
ENDCHAR
STARTCHAR 0141
ENCODING 321
SWIDTH 470 0
DWIDTH 16 0
BBX 14 24 1 0
BITMAP
2000
2000
2000
2000
2000
2000
2000
20C0
2100
2200
2400
2800
3000
2000
E000
2000
2000
2000
2000
2000
2000
2000
2000
3FFC
ENDCHAR
STARTCHAR 0142
ENCODING 322
SWIDTH 176 0
DWIDTH 6 0
BBX 5 24 1 0
BITMAP
20
20
20
20
20
20
20
20
28
30
30
20
60
60
A0
20
20
20
20
20
20
20
20
20
ENDCHAR
STARTCHAR 0143
ENCODING 323
SWIDTH 558 0
DWIDTH 19 0
BBX 13 28 3 0
BITMAP
0080
0100
0200
0000
C008
C008
A008
A008
A008
9008
9008
8808
8808
8408
8408
8208
8208
8108
8108
8108
8088
8088
8048
8048
8028
8028
8018
8018
ENDCHAR
STARTCHAR 0144
ENCODING 324
SWIDTH 470 0
DWIDTH 16 0
BBX 10 24 3 0
BITMAP
0200
0200
0400
0800
1000
0000
0000
FF80
8040
8040
8040
8040
8040
8040
8040
8040
8040
8040
8040
8040
8040
8040
8040
8040
ENDCHAR
STARTCHAR 0145
ENCODING 325
SWIDTH 558 0
DWIDTH 19 0
BBX 13 30 3 -7
BITMAP
C008
C008
A008
A008
A008
9008
9008
8808
8808
8408
8408
8208
8208
8108
8108
8108
8088
8088
8048
8048
8028
8028
8018
8018
0000
0100
0100
0100
0200
0200
ENDCHAR
STARTCHAR 0146
ENCODING 326
SWIDTH 470 0
DWIDTH 16 0
BBX 10 24 3 -7
BITMAP
FF80
8040
8040
8040
8040
8040
8040
8040
8040
8040
8040
8040
8040
8040
8040
8040
8040
0000
0400
0400
0400
0800
0800
0800
ENDCHAR
STARTCHAR 0147
ENCODING 327
SWIDTH 558 0
DWIDTH 19 0
BBX 13 28 3 0
BITMAP
1040
0880
0500
0200
C008
C008
C008
A008
A008
9008
9008
8808
8808
8408
8408
8208
8208
8108
8108
8108
8088
8088
8048
8048
8028
8028
8018
8018
ENDCHAR
STARTCHAR 0148
ENCODING 328
SWIDTH 470 0
DWIDTH 16 0
BBX 10 24 3 0
BITMAP
4100
2200
1400
1400
0800
0000
0000
FF80
8040
8040
8040
8040
8040
8040
8040
8040
8040
8040
8040
8040
8040
8040
8040
8040
ENDCHAR
STARTCHAR 0149
ENCODING 329
SWIDTH 470 0
DWIDTH 16 0
BBX 10 24 3 0
BITMAP
8000
8000
8000
8000
8000
0000
0000
FF80
8040
8040
8040
8040
8040
8040
8040
8040
8040
8040
8040
8040
8040
8040
8040
8040
ENDCHAR
STARTCHAR 014A
ENCODING 330
SWIDTH 558 0
DWIDTH 19 0
BBX 13 29 3 -5
BITMAP
C008
C008
A008
A008
A008
9008
9008
8808
8808
8408
8408
8208
8208
8108
8108
8108
8088
8088
8048
8048
8028
8028
8018
8008
0008
0008
0010
0010
0020
ENDCHAR
STARTCHAR 014B
ENCODING 331
SWIDTH 470 0
DWIDTH 16 0
BBX 10 22 3 -5
BITMAP
FF80
8040
8040
8040
8040
8040
8040
8040
8040
8040
8040
8040
8040
8040
8040
8040
8040
0040
0040
0080
0080
0080
ENDCHAR
STARTCHAR 014C
ENCODING 332
SWIDTH 558 0
DWIDTH 19 0
BBX 13 27 3 0
BITMAP
1FC0
0000
0000
7FF0
8008
8008
8008
8008
8008
8008
8008
8008
8008
8008
8008
8008
8008
8008
8008
8008
8008
8008
8008
8008
8008
8008
7FF0
ENDCHAR
STARTCHAR 014D
ENCODING 333
SWIDTH 470 0
DWIDTH 16 0
BBX 10 22 3 0
BITMAP
3F80
0000
0000
0000
0000
7F80
8040
8040
8040
8040
8040
8040
8040
8040
8040
8040
8040
8040
8040
8040
8040
7F80
ENDCHAR
STARTCHAR 014E
ENCODING 334
SWIDTH 558 0
DWIDTH 19 0
BBX 13 29 3 0
BITMAP
1040
1040
1040
0F80
0000
7FF0
8008
8008
8008
8008
8008
8008
8008
8008
8008
8008
8008
8008
8008
8008
8008
8008
8008
8008
8008
8008
8008
8008
7FF0
ENDCHAR
STARTCHAR 014F
ENCODING 335
SWIDTH 470 0
DWIDTH 16 0
BBX 10 24 3 1
BITMAP
4080
4080
6180
3F00
0000
0000
0000
7F80
8040
8040
8040
8040
8040
8040
8040
8040
8040
8040
8040
8040
8040
8040
8040
7F80
ENDCHAR
STARTCHAR 0150
ENCODING 336
SWIDTH 558 0
DWIDTH 19 0
BBX 13 28 3 0
BITMAP
0220
0440
0880
0000
7FF0
8008
8008
8008
8008
8008
8008
8008
8008
8008
8008
8008
8008
8008
8008
8008
8008
8008
8008
8008
8008
8008
8008
7FF0
ENDCHAR
STARTCHAR 0151
ENCODING 337
SWIDTH 470 0
DWIDTH 16 0
BBX 10 24 3 0
BITMAP
0440
0480
0900
1100
0000
0000
0000
7F80
8040
8040
8040
8040
8040
8040
8040
8040
8040
8040
8040
8040
8040
8040
8040
7F80
ENDCHAR
STARTCHAR 0152
ENCODING 338
SWIDTH 823 0
DWIDTH 28 0
BBX 24 24 3 0
BITMAP
7FFFFF
800800
800800
800800
800800
800800
800800
800800
800800
800800
800800
800FFC
800800
800800
800800
800800
800800
800800
800800
800800
800800
800800
800800
7FFFFF
ENDCHAR
STARTCHAR 0153
ENCODING 339
SWIDTH 735 0
DWIDTH 25 0
BBX 20 17 3 0
BITMAP
7FBFE0
804010
804010
804010
804010
804010
807FF0
804000
804000
804000
804000
804000
804000
804000
804000
804000
7FBFF0
ENDCHAR
STARTCHAR 0154
ENCODING 340
SWIDTH 558 0
DWIDTH 19 0
BBX 14 28 3 1
BITMAP
0200
0400
0000
0000
FFF0
8008
8008
8008
8008
8008
8008
8008
8008
8008
8018
FFE0
8100
8080
8080
8040
8040
8020
8020
8010
8010
8008
8008
8004
ENDCHAR
STARTCHAR 0155
ENCODING 341
SWIDTH 294 0
DWIDTH 10 0
BBX 5 24 3 0
BITMAP
08
10
10
20
00
00
00
F8
80
80
80
80
80
80
80
80
80
80
80
80
80
80
80
80
ENDCHAR
STARTCHAR 0156
ENCODING 342
SWIDTH 558 0
DWIDTH 19 0
BBX 14 31 3 -7
BITMAP
FFF0
8008
8008
8008
8008
8008
8008
8008
8008
8008
8018
FFF0
8040
8020
8020
8020
8010
8010
8010
8008
8008
8008
8004
8004
0000
0100
0100
0100
0200
0200
0400
ENDCHAR
STARTCHAR 0157
ENCODING 343
SWIDTH 294 0
DWIDTH 10 0
BBX 7 24 2 -7
BITMAP
7E
40
40
40
40
40
40
40
40
40
40
40
40
40
40
40
40
00
40
40
40
40
80
80
ENDCHAR
STARTCHAR 0158
ENCODING 344
SWIDTH 558 0
DWIDTH 19 0
BBX 14 28 3 1
BITMAP
1080
0900
0600
0000
FFF0
8008
8008
8008
8008
8008
8008
8008
8008
8008
8018
FFF0
8080
8040
8040
8020
8020
8020
8010
8010
8008
8008
8004
8004
ENDCHAR
STARTCHAR 0159
ENCODING 345
SWIDTH 294 0
DWIDTH 10 0
BBX 7 24 2 0
BITMAP
80
42
24
18
10
00
00
BE
C0
80
80
80
80
80
80
80
80
80
80
80
80
80
80
80
ENDCHAR
STARTCHAR 015A
ENCODING 346
SWIDTH 500 0
DWIDTH 17 0
BBX 13 28 2 1
BITMAP
0080
0100
0200
0000
7FF8
8000
8000
8000
8000
8000
8000
4000
2000
1800
0C00
0200
0100
00C0
0020
0010
0008
0008
0008
0008
0008
0008
0008
FFF0
ENDCHAR
STARTCHAR 015B
ENCODING 347
SWIDTH 411 0
DWIDTH 14 0
BBX 10 24 2 0
BITMAP
0100
0200
0400
0800
1000
0000
0000
7FC0
8000
8000
8000
8000
4000
2000
1800
0400
0300
0080
0040
0040
0040
0040
0040
FF80
ENDCHAR
STARTCHAR 015C
ENCODING 348
SWIDTH 500 0
DWIDTH 17 0
BBX 13 28 2 1
BITMAP
0300
0480
0840
0000
7FF8
8000
8000
8000
8000
8000
8000
4000
2000
1800
0C00
0200
0100
00C0
0020
0010
0008
0008
0008
0008
0008
0008
0008
FFF0
ENDCHAR
STARTCHAR 015D
ENCODING 349
SWIDTH 411 0
DWIDTH 14 0
BBX 10 24 2 0
BITMAP
0400
0A00
1200
2100
4080
0000
0000
7F00
8000
8000
8000
8000
4000
2000
1800
0400
0300
0080
0040
0040
0040
0040
0040
FF80
ENDCHAR
STARTCHAR 015E
ENCODING 350
SWIDTH 500 0
DWIDTH 17 0
BBX 13 31 2 -7
BITMAP
7FF8
8000
8000
8000
8000
8000
8000
4000
2000
1800
0C00
0200
0100
00C0
0020
0010
0008
0008
0008
0008
0008
0008
0008
FFF0
0400
0780
0040
0040
0040
0040
0F80
ENDCHAR
STARTCHAR 015F
ENCODING 351
SWIDTH 411 0
DWIDTH 14 0
BBX 10 24 2 -7
BITMAP
7FC0
8000
8000
8000
8000
4000
2000
1800
0400
0300
0080
0040
0040
0040
0040
0040
FF80
0800
0E00
0100
0100
0100
0100
3E00
ENDCHAR
STARTCHAR 0160
ENCODING 352
SWIDTH 500 0
DWIDTH 17 0
BBX 13 28 2 1
BITMAP
0880
0500
0200
0000
7FF8
8000
8000
8000
8000
8000
8000
4000
2000
1800
0C00
0200
0100
00C0
0020
0010
0008
0008
0008
0008
0008
0008
0008
FFF0
ENDCHAR
STARTCHAR 0161
ENCODING 353
SWIDTH 411 0
DWIDTH 14 0
BBX 10 24 2 0
BITMAP
4000
2100
1200
0C00
0000
0000
0000
7F00
8000
8000
8000
8000
4000
2000
1800
0400
0300
0080
0040
0040
0040
0040
0040
FF80
ENDCHAR
STARTCHAR 0162
ENCODING 354
SWIDTH 470 0
DWIDTH 16 0
BBX 14 31 0 -7
BITMAP
FFFC
0100
0100
0100
0100
0100
0100
0100
0100
0100
0100
0100
0100
0100
0100
0100
0100
0100
0100
0100
0100
0100
0100
0100
0000
0100
0100
0100
0200
0200
0200
ENDCHAR
STARTCHAR 0163
ENCODING 355
SWIDTH 294 0
DWIDTH 10 0
BBX 6 28 3 -6
BITMAP
80
80
80
80
FC
80
80
80
80
80
80
80
80
80
80
80
80
80
80
80
7C
00
10
10
10
20
20
20
ENDCHAR
STARTCHAR 0164
ENCODING 356
SWIDTH 470 0
DWIDTH 16 0
BBX 13 28 1 1
BITMAP
0800
0580
0200
0000
FFF8
0200
0200
0200
0200
0200
0200
0200
0200
0200
0200
0200
0200
0200
0200
0200
0200
0200
0200
0200
0200
0200
0200
0200
ENDCHAR
STARTCHAR 0165
ENCODING 357
SWIDTH 294 0
DWIDTH 10 0
BBX 6 24 3 0
BITMAP
08
08
08
88
88
80
80
FC
80
80
80
80
80
80
80
80
80
80
80
80
80
80
80
7C
ENDCHAR
STARTCHAR 0166
ENCODING 358
SWIDTH 470 0
DWIDTH 16 0
BBX 16 24 0 0
BITMAP
FFFF
0080
0080
0080
0080
0080
0080
0080
0080
0080
0080
0080
0080
3FFC
0080
0080
0080
0080
0080
0080
0080
0080
0080
0080
ENDCHAR
STARTCHAR 0167
ENCODING 359
SWIDTH 294 0
DWIDTH 10 0
BBX 8 21 1 1
BITMAP
20
20
20
20
3F
20
20
20
20
20
FF
20
20
20
20
20
20
20
20
20
1F
ENDCHAR
STARTCHAR 0168
ENCODING 360
SWIDTH 558 0
DWIDTH 19 0
BBX 13 28 3 0
BITMAP
3C10
4210
41E0
0000
8018
8018
8018
8018
8018
8018
8018
8018
8018
8018
8018
8018
8018
8018
8018
8018
8018
8018
8018
8018
8018
8018
8018
7FF0
ENDCHAR
STARTCHAR 0169
ENCODING 361
SWIDTH 470 0
DWIDTH 16 0
BBX 10 24 3 0
BITMAP
7040
C840
8840
84C0
8380
0000
0000
8040
8040
8040
8040
8040
8040
8040
8040
8040
8040
8040
8040
8040
8040
8040
8040
7FC0
ENDCHAR
STARTCHAR 016A
ENCODING 362
SWIDTH 558 0
DWIDTH 19 0
BBX 13 27 3 0
BITMAP
1FC0
0000
0000
8008
8008
8008
8008
8008
8008
8008
8008
8008
8008
8008
8008
8008
8008
8008
8008
8008
8008
8008
8008
8008
8008
8008
7FF0
ENDCHAR
STARTCHAR 016B
ENCODING 363
SWIDTH 470 0
DWIDTH 16 0
BBX 10 22 3 0
BITMAP
3F80
0000
0000
0000
0000
8040
8040
8040
8040
8040
8040
8040
8040
8040
8040
8040
8040
8040
8040
8040
8040
7FC0
ENDCHAR
STARTCHAR 016C
ENCODING 364
SWIDTH 558 0
DWIDTH 19 0
BBX 13 29 3 0
BITMAP
1040
1040
1040
0F80
0000
8008
8008
8008
8008
8008
8008
8008
8008
8008
8008
8008
8008
8008
8008
8008
8008
8008
8008
8008
8008
8008
8008
8008
7FF0
ENDCHAR
STARTCHAR 016D
ENCODING 365
SWIDTH 470 0
DWIDTH 16 0
BBX 10 24 3 1
BITMAP
4080
4080
6180
3F00
0000
0000
0000
8040
8040
8040
8040
8040
8040
8040
8040
8040
8040
8040
8040
8040
8040
8040
8040
7FC0
ENDCHAR
STARTCHAR 016E
ENCODING 366
SWIDTH 558 0
DWIDTH 19 0
BBX 13 29 3 0
BITMAP
0F80
1040
1040
1040
0F80
0000
8008
8008
8008
8008
8008
8008
8008
8008
8008
8008
8008
8008
8008
8008
8008
8008
8008
8008
8008
8008
8008
8008
7FF0
ENDCHAR
STARTCHAR 016F
ENCODING 367
SWIDTH 470 0
DWIDTH 16 0
BBX 10 25 3 0
BITMAP
3F00
4080
4080
4080
4080
3F00
0000
0000
8040
8040
8040
8040
8040
8040
8040
8040
8040
8040
8040
8040
8040
8040
8040
8040
7FC0
ENDCHAR
STARTCHAR 0170
ENCODING 368
SWIDTH 558 0
DWIDTH 19 0
BBX 13 28 3 0
BITMAP
0120
0640
0880
0000
8008
8008
8008
8008
8008
8008
8008
8008
8008
8008
8008
8008
8008
8008
8008
8008
8008
8008
8008
8008
8008
8008
8008
7FF0
ENDCHAR
STARTCHAR 0171
ENCODING 369
SWIDTH 470 0
DWIDTH 16 0
BBX 10 24 3 0
BITMAP
0480
0880
1100
1000
0000
0000
0000
8040
8040
8040
8040
8040
8040
8040
8040
8040
8040
8040
8040
8040
8040
8040
8040
7FC0
ENDCHAR
STARTCHAR 0172
ENCODING 370
SWIDTH 558 0
DWIDTH 19 0
BBX 13 30 3 -6
BITMAP
8008
8008
8008
8008
8008
8008
8008
8008
8008
8008
8008
8008
8008
8008
8008
8008
8008
8008
8008
8008
8008
8008
C018
7FF0
0100
0600
0800
0800
0800
0780
ENDCHAR
STARTCHAR 0173
ENCODING 371
SWIDTH 470 0
DWIDTH 16 0
BBX 10 24 3 -7
BITMAP
8040
8040
8040
8040
8040
8040
8040
8040
8040
8040
8040
8040
8040
8040
8040
8040
7FC0
0080
0100
0200
0200
0200
0200
01C0
ENDCHAR
STARTCHAR 0174
ENCODING 372
SWIDTH 764 0
DWIDTH 26 0
BBX 24 28 1 1
BITMAP
003000
004C00
008200
000000
801001
803001
803002
402802
402802
402802
404804
204404
204404
204408
204408
108408
108208
108210
108210
108210
090220
090120
090120
090120
060140
060140
0600C0
0200C0
ENDCHAR
STARTCHAR 0175
ENCODING 373
SWIDTH 617 0
DWIDTH 21 0
BBX 19 24 1 0
BITMAP
004000
00A000
011000
021000
020800
000000
000000
804020
80C020
40A040
40A040
40A040
412080
212080
211080
211100
111100
121100
121100
120A00
0A0A00
0A0A00
0C0C00
040400
ENDCHAR
STARTCHAR 0176
ENCODING 374
SWIDTH 529 0
DWIDTH 18 0
BBX 17 28 0 1
BITMAP
008000
034000
002000
000000
800080
400100
400100
200200
100400
100400
080800
080800
041000
022000
022000
014000
014000
008000
008000
008000
008000
008000
008000
008000
008000
008000
008000
008000
ENDCHAR
STARTCHAR 0177
ENCODING 375
SWIDTH 382 0
DWIDTH 13 0
BBX 12 31 1 -7
BITMAP
0400
0A00
1100
2100
2080
0000
0000
8010
8020
8020
4020
4040
4040
2040
2080
2080
1080
1100
1100
1100
0A00
0A00
0A00
0400
0400
0400
0800
0800
0800
1000
1000
ENDCHAR
STARTCHAR 0178
ENCODING 376
SWIDTH 529 0
DWIDTH 18 0
BBX 16 27 1 0
BITMAP
0240
0000
0000
8001
8001
4002
2002
2004
1008
0808
0810
0410
0420
0220
0140
0140
0080
0080
0080
0080
0080
0080
0080
0080
0080
0080
0080
ENDCHAR
STARTCHAR 0179
ENCODING 377
SWIDTH 500 0
DWIDTH 17 0
BBX 14 28 2 1
BITMAP
0040
0180
0200
0000
FFFC
0004
0008
0010
0010
0020
0020
0040
0080
0080
0100
0100
0200
0200
0400
0800
0800
1000
1000
2000
2000
4000
8000
FFFC
ENDCHAR
STARTCHAR 017A
ENCODING 378
SWIDTH 411 0
DWIDTH 14 0
BBX 11 24 2 0
BITMAP
0080
0100
0200
0400
0800
0000
0000
FFE0
0040
0040
0080
0100
0100
0200
0200
0400
0800
0800
1000
2000
2000
4000
8000
FFE0
ENDCHAR
STARTCHAR 017B
ENCODING 379
SWIDTH 500 0
DWIDTH 17 0
BBX 14 27 2 0
BITMAP
0100
0000
0000
FFFC
0004
0008
0010
0010
0020
0020
0040
0080
0080
0100
0100
0200
0200
0400
0800
0800
1000
1000
2000
2000
4000
8000
FFFC
ENDCHAR
STARTCHAR 017C
ENCODING 380
SWIDTH 411 0
DWIDTH 14 0
BBX 11 21 2 0
BITMAP
0400
0000
0000
0000
FFE0
0040
0040
0080
0100
0100
0200
0200
0400
0800
0800
1000
2000
2000
4000
8000
FFE0
ENDCHAR
STARTCHAR 017D
ENCODING 381
SWIDTH 500 0
DWIDTH 17 0
BBX 14 28 2 1
BITMAP
0840
0480
0300
0000
FFFC
0004
0008
0010
0010
0020
0020
0040
0080
0080
0100
0100
0200
0200
0400
0800
0800
1000
1000
2000
2000
4000
8000
FFFC
ENDCHAR
STARTCHAR 017E
ENCODING 382
SWIDTH 411 0
DWIDTH 14 0
BBX 11 24 2 0
BITMAP
2080
1100
1200
0C00
0400
0000
0000
FFE0
0040
0040
0080
0100
0100
0200
0400
0400
0800
0800
1000
2000
2000
4000
8000
FFE0
ENDCHAR
STARTCHAR 0192
ENCODING 402
SWIDTH 264 0
DWIDTH 9 0
BBX 11 31 -1 -7
BITMAP
03E0
0400
0400
0400
0400
0400
0400
07E0
0400
0400
0400
0400
0400
0400
0400
0400
0400
0400
0400
0400
0400
0400
0400
0400
0400
0400
0400
0400
0400
0400
F800
ENDCHAR
STARTCHAR 0218
ENCODING 536
SWIDTH 470 0
DWIDTH 16 0
BBX 11 24 2 0
BITMAP
0100
0200
0200
0400
0800
0000
0000
FFC0
0020
0020
0020
0020
0020
7FE0
C020
8020
8020
8020
8020
8020
8020
8020
8020
7FE0
ENDCHAR
STARTCHAR 0219
ENCODING 537
SWIDTH 500 0
DWIDTH 17 0
BBX 13 31 2 -7
BITMAP
7FF8
8000
8000
8000
8000
8000
8000
4000
2000
1800
0C00
0200
0100
00C0
0020
0010
0008
0008
0008
0008
0008
0008
0008
FFF0
0000
0200
0200
0200
0400
0400
0400
ENDCHAR
STARTCHAR 02C6
ENCODING 710
SWIDTH 382 0
DWIDTH 13 0
BBX 7 5 3 19
BITMAP
10
28
44
84
82
ENDCHAR
STARTCHAR 02C7
ENCODING 711
SWIDTH 382 0
DWIDTH 13 0
BBX 7 5 3 19
BITMAP
82
44
28
28
10
ENDCHAR
STARTCHAR 02D8
ENCODING 728
SWIDTH 352 0
DWIDTH 12 0
BBX 8 4 2 21
BITMAP
81
81
C3
7E
ENDCHAR
STARTCHAR 02D9
ENCODING 729
SWIDTH 176 0
DWIDTH 6 0
BBX 1 1 3 20
BITMAP
80
ENDCHAR
STARTCHAR 02DA
ENCODING 730
SWIDTH 352 0
DWIDTH 12 0
BBX 7 6 3 19
BITMAP
7C
82
82
82
82
7C
ENDCHAR
STARTCHAR 02DB
ENCODING 731
SWIDTH 323 0
DWIDTH 11 0
BBX 5 7 3 -7
BITMAP
10
60
80
80
80
80
78
ENDCHAR
STARTCHAR 02DC
ENCODING 732
SWIDTH 441 0
DWIDTH 15 0
BBX 11 5 2 19
BITMAP
7020
C820
8420
8260
81C0
ENDCHAR
STARTCHAR 02DD
ENCODING 733
SWIDTH 382 0
DWIDTH 13 0
BBX 7 4 4 19
BITMAP
22
44
88
10
ENDCHAR
STARTCHAR 0394
ENCODING 916
SWIDTH 500 0
DWIDTH 17 0
BBX 16 24 1 0
BITMAP
0180
0180
0180
0240
0240
0240
0420
0420
0420
0810
0810
0810
1008
1008
1008
1008
2004
2004
2004
4002
4002
4002
8001
FFFF
ENDCHAR
STARTCHAR 03A9
ENCODING 937
SWIDTH 529 0
DWIDTH 18 0
BBX 12 24 3 0
BITMAP
7FE0
8010
8010
8010
8010
8010
8010
8010
8010
8010
8010
8010
8010
8010
8010
C030
79E0
0900
0900
0900
0900
0900
0900
F9F0
ENDCHAR
STARTCHAR 03C0
ENCODING 960
SWIDTH 470 0
DWIDTH 16 0
BBX 13 18 1 0
BITMAP
7808
D408
9208
91B0
1060
1020
1020
1020
1020
1020
1020
1020
1020
1020
1020
1020
1020
1020
ENDCHAR
STARTCHAR 2013
ENCODING 8211
SWIDTH 441 0
DWIDTH 15 0
BBX 12 1 2 10
BITMAP
FFF0
ENDCHAR
STARTCHAR 2014
ENCODING 8212
SWIDTH 705 0
DWIDTH 24 0
BBX 21 1 2 10
BITMAP
FFFFF8
ENDCHAR
STARTCHAR 2018
ENCODING 8216
SWIDTH 176 0
DWIDTH 6 0
BBX 2 6 3 20
BITMAP
40
40
80
80
80
80
ENDCHAR
STARTCHAR 2019
ENCODING 8217
SWIDTH 176 0
DWIDTH 6 0
BBX 2 6 2 17
BITMAP
40
40
40
40
80
80
ENDCHAR
STARTCHAR 201A
ENCODING 8218
SWIDTH 176 0
DWIDTH 6 0
BBX 2 5 2 -4
BITMAP
40
40
40
80
80
ENDCHAR
STARTCHAR 201C
ENCODING 8220
SWIDTH 294 0
DWIDTH 10 0
BBX 6 6 3 20
BITMAP
44
44
88
88
88
88
ENDCHAR
STARTCHAR 201D
ENCODING 8221
SWIDTH 294 0
DWIDTH 10 0
BBX 6 6 2 17
BITMAP
44
44
44
44
88
88
ENDCHAR
STARTCHAR 201E
ENCODING 8222
SWIDTH 294 0
DWIDTH 10 0
BBX 6 5 2 -4
BITMAP
44
44
44
88
88
ENDCHAR
STARTCHAR 2020
ENCODING 8224
SWIDTH 470 0
DWIDTH 16 0
BBX 15 24 0 0
BITMAP
0100
0100
0100
0100
0100
0100
0100
FFFE
0100
0100
0100
0100
0100
0100
0100
0100
0100
0100
0100
0100
0100
0100
0100
0100
ENDCHAR
STARTCHAR 2021
ENCODING 8225
SWIDTH 500 0
DWIDTH 17 0
BBX 15 24 1 0
BITMAP
0100
0100
0100
0100
0100
0100
0100
FFFE
0100
0100
0100
0100
0100
0100
0100
FFFE
0100
0100
0100
0100
0100
0100
0100
0100
ENDCHAR
STARTCHAR 2022
ENCODING 8226
SWIDTH 441 0
DWIDTH 15 0
BBX 9 15 3 1
BITMAP
7F00
FF80
FF80
FF80
FF80
FF80
FF80
FF80
FF80
FF80
FF80
FF80
FF80
FF80
7F00
ENDCHAR
STARTCHAR 2026
ENCODING 8230
SWIDTH 588 0
DWIDTH 20 0
BBX 15 1 2 1
BITMAP
8102
ENDCHAR
STARTCHAR 2030
ENCODING 8240
SWIDTH 794 0
DWIDTH 27 0
BBX 23 24 2 0
BITMAP
7C0400
820800
820800
821000
822000
822000
824000
824000
828000
C68000
7D0000
010000
020000
02F87C
058CC6
050482
090482
090482
110482
210482
210482
410482
410482
80F87C
ENDCHAR
STARTCHAR 2039
ENCODING 8249
SWIDTH 323 0
DWIDTH 11 0
BBX 9 14 1 3
BITMAP
0080
0100
0600
0800
1000
6000
C000
C000
2000
1000
0C00
0200
0100
0080
ENDCHAR
STARTCHAR 203A
ENCODING 8250
SWIDTH 323 0
DWIDTH 11 0
BBX 9 14 1 3
BITMAP
8000
4000
3000
1800
0400
0300
0180
0180
0200
0400
1800
2000
4000
8000
ENDCHAR
STARTCHAR 2044
ENCODING 8260
SWIDTH 411 0
DWIDTH 14 0
BBX 13 24 0 0
BITMAP
0008
0008
0010
0010
0020
0020
0040
0040
0080
0080
0100
0100
0200
0200
0400
0800
0800
1000
1000
2000
2000
4000
4000
8000
ENDCHAR
STARTCHAR 20AC
ENCODING 8364
SWIDTH 500 0
DWIDTH 17 0
BBX 13 24 2 0
BITMAP
3FF8
4000
4000
4000
4000
4000
4000
4000
4000
FFE0
4000
4000
4000
FFE0
4000
4000
4000
4000
4000
4000
4000
4000
4000
3FF8
ENDCHAR
STARTCHAR 2122
ENCODING 8482
SWIDTH 529 0
DWIDTH 18 0
BBX 14 11 2 16
BITMAP
8000
8000
E7FC
8444
8444
8444
8444
8444
8444
8444
E444
ENDCHAR
STARTCHAR 2202
ENCODING 8706
SWIDTH 500 0
DWIDTH 17 0
BBX 11 24 3 0
BITMAP
4000
2000
3000
1000
0800
0400
0200
0100
0080
0040
0020
7FE0
C020
8020
8020
8020
8020
8020
8020
8020
8020
8020
8020
7FC0
ENDCHAR
STARTCHAR 220F
ENCODING 8719
SWIDTH 558 0
DWIDTH 19 0
BBX 13 24 3 0
BITMAP
FFF8
8008
8008
8008
8008
8008
8008
8008
8008
8008
8008
8008
8008
8008
8008
8008
8008
8008
8008
8008
8008
8008
8008
8008
ENDCHAR
STARTCHAR 2211
ENCODING 8721
SWIDTH 500 0
DWIDTH 17 0
BBX 13 24 2 0
BITMAP
FFF8
8000
4000
4000
2000
1000
1000
0800
0800
0400
0400
0200
0200
0400
0400
0800
0800
1000
2000
2000
4000
4000
8000
FFF8
ENDCHAR
STARTCHAR 221A
ENCODING 8730
SWIDTH 676 0
DWIDTH 23 0
BBX 20 24 1 0
BITMAP
000010
000020
000040
000040
000080
000080
000100
FE0100
020200
020200
020400
020400
020800
020800
021000
021000
022000
022000
024000
028000
028000
030000
030000
020000
ENDCHAR
STARTCHAR 221E
ENCODING 8734
SWIDTH 735 0
DWIDTH 25 0
BBX 23 11 1 7
BITMAP
7FEFFC
C03806
801002
801002
801002
801002
801002
801002
801002
C03806
7FEFFC
ENDCHAR
STARTCHAR 222B
ENCODING 8747
SWIDTH 235 0
DWIDTH 8 0
BBX 11 31 -1 -7
BITMAP
03E0
0400
0400
0400
0400
0400
0400
0400
0400
0400
0400
0400
0400
0400
0400
0400
0400
0400
0400
0400
0400
0400
0400
0400
0400
0400
0400
0400
0400
0400
F800
ENDCHAR
STARTCHAR 2248
ENCODING 8776
SWIDTH 441 0
DWIDTH 15 0
BBX 13 11 1 5
BITMAP
7008
CC08
8208
8118
80F0
0000
7008
CC08
8208
8118
80F0
ENDCHAR
STARTCHAR 2260
ENCODING 8800
SWIDTH 441 0
DWIDTH 15 0
BBX 12 16 2 2
BITMAP
0020
0040
0040
0080
FFF0
0100
0200
0200
0400
0400
0800
FFF0
1000
2000
2000
4000
ENDCHAR
STARTCHAR 2264
ENCODING 8804
SWIDTH 441 0
DWIDTH 15 0
BBX 12 18 2 0
BITMAP
0010
0020
00C0
0300
0C00
3000
4000
C000
2000
1800
0600
0100
00C0
0030
0000
0000
0000
FFF0
ENDCHAR
STARTCHAR 2265
ENCODING 8805
SWIDTH 441 0
DWIDTH 15 0
BBX 12 18 2 0
BITMAP
8000
4000
3000
0C00
0300
00C0
0020
0030
0040
0180
0600
0800
3000
C000
0000
0000
0000
FFF0
ENDCHAR
STARTCHAR 25CA
ENCODING 9674
SWIDTH 500 0
DWIDTH 17 0
BBX 13 31 2 -7
BITMAP
0200
0500
0500
0480
0880
0880
1040
1040
1040
2020
2020
4010
4010
4010
8008
8008
8008
4010
4010
4020
2020
2020
1040
1040
1080
0880
0880
0900
0500
0600
0200
ENDCHAR
STARTCHAR F6C3
ENCODING 63171
SWIDTH 176 0
DWIDTH 6 0
BBX 2 6 2 -7
BITMAP
40
40
40
80
80
80
ENDCHAR
STARTCHAR F6C9
ENCODING 63177
SWIDTH 470 0
DWIDTH 16 0
BBX 3 3 8 25
BITMAP
20
40
80
ENDCHAR
STARTCHAR F6CA
ENCODING 63178
SWIDTH 382 0
DWIDTH 13 0
BBX 5 2 4 26
BITMAP
98
60
ENDCHAR
STARTCHAR F6CB
ENCODING 63179
SWIDTH 294 0
DWIDTH 10 0
BBX 4 1 3 26
BITMAP
90
ENDCHAR
STARTCHAR F6CE
ENCODING 63182
SWIDTH 294 0
DWIDTH 10 0
BBX 3 3 4 25
BITMAP
80
40
20
ENDCHAR
STARTCHAR F6CF
ENCODING 63183
SWIDTH 382 0
DWIDTH 13 0
BBX 7 3 3 25
BITMAP
12
64
88
ENDCHAR
STARTCHAR F6D0
ENCODING 63184
SWIDTH 352 0
DWIDTH 12 0
BBX 7 1 3 26
BITMAP
FE
ENDCHAR
STARTCHAR FB01
ENCODING 64257
SWIDTH 441 0
DWIDTH 15 0
BBX 9 24 3 0
BITMAP
7F80
8000
8000
8000
8000
8000
8000
FF80
8080
8080
8080
8080
8080
8080
8080
8080
8080
8080
8080
8080
8080
8080
8080
8080
ENDCHAR
STARTCHAR FB02
ENCODING 64258
SWIDTH 441 0
DWIDTH 15 0
BBX 9 24 3 0
BITMAP
7880
8080
8080
8080
8080
8080
8080
FF80
8080
8080
8080
8080
8080
8080
8080
8080
8080
8080
8080
8080
8080
8080
8080
8080
ENDCHAR
ENDFONT
